<?xml version="1.0" standalone="no"?>
<!DOCTYPE svg PUBLIC "-//W3C//DTD SVG 1.1//EN" "http://www.w3.org/Graphics/SVG/1.1/DTD/svg11.dtd" >
<svg xmlns="http://www.w3.org/2000/svg">
<metadata>Generated by IcoMoon</metadata>
<defs>
<font id="icomoon" horiz-adv-x="1024">
<font-face units-per-em="1024" ascent="960" descent="-64" />
<missing-glyph horiz-adv-x="1024" />
<glyph unicode="&#x20;" horiz-adv-x="512" d="" />
<glyph unicode="&#xe900;" d="M2 718.4h228.6c0 0 43.2 0 51.2-12.2h-42.4v-13l65-0.8c0 0 10.6-7.4 10.6-13l-75.6-0.8v-12.2h83.8c0 0 9.8-4.8 7.4-15.4h-261v-13.8l265.2 0.8c0 0 1.6-10.6 1.6-13.8h-266.8v-13.8l267.6 0.8c0 0 1.6-8.2-2.4-13.8l-265.2-2.6v-13l261.2 1.6c0 0 0-10.6-6.6-13.8l-254.6-1.6v-12.2l246.6 1.6c0 0-0.8-13-9.8-15.4l-236.8-0.8v-13l217.2 1.6c0 0-4.8-16.2-38.2-14.6l-40.6 0.8v-12.2l65.8-0.8c0 0 27.6 0 31.8-11.4l-97.6-2.4v-12.2h114.8c0 0 10.6-8.2 10.6-13l-263.6-1.6v-14.6l269.4 2.4c0 0 10.6-7.4 10.6-14.6l-279.8-1.6v-12.2h284c0 0 3.2-4 1.6-11.4l-285.6-2.4v-12.2h285.6c0 0 2.4-7.4 0-13l-286-2v-13h283.2c0 0 2.4-8.2-4-14.6h-279.2v-13l273.4 0.8c0 0-0.8-13-6.6-13.8h-96.8v-13.8l83.8 0.8c0 0-5.8-13-11.4-14.6l-72.4-0.8v-13.8l48.8 0.8c0 0-7.4-15.4-71.6-13l-214.8 0.6v445z" />
<glyph unicode="&#xe901;" d="M373.8 428.8l61.2 1.2c1.6 35.8 55.4 23.6 55.4 23.6 36.6-30-6.6-37.4-6.6-37.4-19.6 0-83-18-83-18-39-14.8-36.6-56.2-36.6-56.2 0-62.8 57-66.8 57-66.8 52.8-12.2 85.4 22 85.4 22l4-22.8 65 1.6-8.2 25.2-2.4 146.4c-3.2 78.8-130.2 52.8-130.2 52.8-68.4-11.4-61-71.6-61-71.6zM587 497h61.8l-0.8-23.6c0 0 34.2 35 60.2 31.8 0 0 66 13 79-64.2l1.6-166h-61l-0.8 149.8c0 0-17 43.2-61 15.4 0 0-19.6-7.4-16.2-57.8l0.8-107.4-61.8 0.8-1.8 221.2zM810.8 587.4l57-0.8 3.2-169.2 69.2 90.4h70.8l-64.2-88.6 77.4-141.6-71.6-2.4-49.6 91.2-30.2-40.6 0.8-49.6h-61l-1.8 311.2zM505.6 381.6c0 0-0.8-23.6 0-28.4 0 0-7.4-23.6-27.6-27.6 0 0-39-23.6-52.2 6.6 0 0-5.6 18 13 25.2 0.2-0.2 63.6 16 66.8 24.2v0z" />
<glyph unicode="&#xe902;" d="M512.6 552.8c-40.8-82-87.4-162.2-138-238.6v0 0c-130.8-7.8-258.6-27.4-374.6-59.2v0c165.8 181.2 303.2 417.4 375.6 651.8h0.2c31.4-116.2 78.4-236.8 136.8-354z" />
<glyph unicode="&#xe903;" d="M374.4 314.2c91.6 5.6 184.6 5.2 276.2-0.6 73-109.8 154.6-211 241-295.6-240.4 54-514.8 55.4-755.2 1l-0.2 0.4 16 16 36 37.8 3.8 4.2 38 44c50.6 59.8 99.2 124.6 144.4 192.8z" />
<glyph unicode="&#xe904;" d="M650.6 313.6c-50.6 76.4-97.2 157-138 239.2 58.4 117.2 105.2 237.6 135.6 354v0c74.6-235.2 211.6-473.2 379.6-653l-0.2-0.2c-117 31.4-245.4 51.6-377 60z" />
<glyph unicode="&#xe905;" d="M650.6 313.6c131.6-8.4 260.2-28.6 376.8-60.2l-136-235.6c-86.2 84.8-167.8 186-240.8 295.8z" />
<glyph unicode="&#xe906;" d="M374.4 314.2c-72.4-109-153.4-209.8-238.2-294.8l-136.2 235.6c116 31.8 243.8 51.4 374.4 59.2z" />
<glyph unicode="&#xe907;" d="M648 906.8c-30.4-116.4-77.2-236.8-135.6-354-58.4 117.2-105.2 237.8-136.8 354h272.4z" />
<glyph unicode="&#xe908;" glyph-name="gongshang" d="M216.4 719.8h278.4v-81.6h-197.6v-77.2h197.6v-222.6h-197.6v-94.2h197.6v-72.8h-278.4v249.4h201.6v67.6h-201.6zM807.6 719.8h-278.4v-81.6h197.6v-77.2h-197.6v-222.6h197.6v-94.2h-197.6v-72.8h278.4v249.4h-201.6v67.6h201.6zM0 460.8c0 282.8 229.2 512 512 512s512-229.2 512-512c0-282.8-229.2-512-512-512s-512 229.2-512 512zM512 14.6c246.4 0 446.2 199.8 446.2 446 0 246.4-199.6 446.2-446.2 446.2-246.4 0.2-446.2-199.6-446.2-446s199.8-446.2 446.2-446.2z" />
<glyph unicode="&#xe909;" glyph-name="jianshe" d="M971.6 429h-188.4c0 0-13.6 0.4-19.2-2.2-3.8-1.6-14.4-10.6-14.4-10.6l-232.8-231.4c-3.8-3.8-10-3.8-13.8 0l-246.8 246.2c-3.8 3.8-3.8 10 0 13.8l247.2 246.8c3.8 3.8 10 3.8 13.8 0l217.4-217.6c0 0 9-10.4 19.6-13.2 9.8-2.6 24.2 10.2 24.2 10.2l100.4 102-292.8 291.2c-62 62-130 56.4-156.4 52-235.2-38.8-405.6-240.2-405.6-480.6 0-270.2 224-486.8 486.2-486.8 258.6 0 474.2 207.8 486.4 468.8 0.2 3 1 5.4-5.4 9.8-6.2 4.8-19.6 1.6-19.6 1.6v0zM663.4 872l256.6-255 71.8 68.8c0 0 6.2 10.8 8.4 21.6 1.2 5.4-9.6 14.6-9.6 14.6l-156.8 156.8c-147.8 147.8-312 76.8-312 76.8s68.4-0.4 141.6-83.6v0z" />
<glyph unicode="&#xe90a;" glyph-name="jiaotong" d="M50 248.2v0zM668.6 750.4c-61.4 0-118.6-18-166.6-48.8l-163.6-106v367.2l-288.4-243.4v-460.2c0-136.8 89-252.8 212.6-293.6l55-17.2c-112.8 56.2-189.8 170-189.8 301.4 0 187 156.4 338.6 349.2 338.6 180 0 328.4-132.2 347.2-301.8h-199c-17.4 66.4-77.8 115.6-149.8 115.6-85.4 0-154.6-69.2-154.6-154.6s69.2-154.6 154.6-154.6c79 0 144 59.2 153.4 135.4h196.6c-4.4-68.4-29.6-131.2-69.8-182.6 0 0 122 142.8 163.8 207.4 37.8 58.6 58.6 119 58.6 187.8 0 171-138.4 309.4-309.4 309.4v0z" />
<glyph unicode="&#xe90b;" d="M516.8 388.2l94.2-48.8-94.2-48.6v-58.4l235.4 115.2-235.4 97.4v-56.8zM516.8 834.6v47c1.6 0 1.6 0 3.2 0 168.8 4.8 504.8-56.8 503.2-248.4h-155.8c-22.6 144.6-188.2 206.4-350.6 201.4v0zM422.8 339.6l87.6 52 6.4-3.2v56.8l-22.8 9.8c0 0-340.8-13-311.6 224 35.8 95.8 185 152.6 334.4 155.8v46.8c-185-4.8-443-55-491.8-222.2-1.6-6.4-3.2-11.4-3.2-16.2v-22.8c9.8-95.8 151-206.2 383-206.2l-125-74.6 222.4-113.6 14.6 6.4v58.4l-3.2-1.6-90.8 50.4z" />
<glyph unicode="&#xe90c;" d="M603 631.8l-87.6-50.2-6.6 1.6v-56.8l21.2-8.2c0 0 340.8 11.4 313.2-224-37.4-95.8-185-152.6-334.4-155.8v-47c185 6.4 443.2 55.2 491.8 222.4 1.6 4.8 3.2 9.8 3.2 16.2v21c-9.8 97.4-152.6 206.2-383 207.8l123.4 73-220.8 115.2-14.6-8.2v-56.8l3.2 1.6 91-51.8zM508.8 583l-94.2 48.6 94.2 50.4v56.8l-235.4-113.6 235.4-99v56.8zM508.8 138.2v-47c-1.6 0-3.2 0-3.2 0-169-3.2-505 56.8-505 248.4h157.4c22.8-142.8 186.8-204.6 350.8-201.4v0z" />
<glyph unicode="&#xe90d;" glyph-name="nongye" d="M475.8 658.4c18.8 0 37.6 0 56.4 0 9.6 0 27.8-2.2 33.4 8.8 2.2 3.2 4 8.8 4 12.8 2.8 6.4 0 20.6 0 27.6 0 13 0 26 0 39 0 51 0 102 0 153 0 8.2 1.4 73.2-1.8 73.2-14.8 0-29.8 0-44.6 0-15 0-29.8 0-44.6 0-7.2 0-14.2 0-21.4 0-3.2 0-1.8-31.4-1.8-36.4 0-51 0-101.8 0-152.8 0-35.4-3.2-72.4 0.2-107.4 1.6-10.4 10.2-17 20.2-17.8zM637.8 962.2c-0.2-53.2-0.2-106.4-0.6-159.8-0.2-49 6.2-102.8-0.6-151.4-4.2-31-78.2-11-99.6-17.8-22.4-7.2-13.2-49.4-13.2-66 0-34.2 0-68.6 0-102.8 9 18.8 35.8 12.6 52.6 12.6 28.4 0 62-5 89.8 0.4 11.4 2.4 16.8 12.2 16.8 23.2-3.8 2.8 0 35.2 0 40.6 0 21.2 0 42.6 0 63.8 0 76 0 152 0 228 142.2-66 235.2-212.8 235.2-369.2 0-199.4-152-375.2-350.2-402.2 0 40.6 0 81.2 0 122 0 20 0 40 0 60.2 0 9.8 0 19.4 0 29.2 0 4.2-1.2 10.6 0 14.6 2.6 9-1.6 4.4 5.8 7.4 12.4 4.8 123.6-13.6 109.2 22.4-5.8 9.8-0.2 39-0.2 50.6 0 35.6 0.2 71.2 0 106.8 1.4-28.2-32.8-21.8-51-21.8-27.8 0-58.6 3.8-86.2 0-28.6 0-21.8-36.8-21.8-55 0-34.2 0-68.4 0-102.6-4.8 0.2-13.8-1.2-18 0.8-6 2.8-5 1.6-5 10.8s0 18.4 0 27.6c0 17.6 0 35.4 0 53 0 15.2 3 34-0.4 48.8-4.4 24.8-43.8 16.6-60.8 16.4-26.4-0.2-58.6-5.4-84.4 0.6-9.8 2.6-14.2 10.2-13.6 20 0-40.2 0-80.2 0-120.4 0-13-2.6-28.2 0.4-41.2 4.2-23.2 35.8-17 52.6-17 12 0 24 0 36.2 0 5.8 0 11.6 0 17.4 0 11.2 0 7.2-10 7.2-20 0-71 0-142 0-213-198.2 26.8-350 202.6-350 402 0 156.8 93.6 303.8 236.4 369.2 0-86.4 0-172.6 0-259 0-24.8 0-49.6 0-74.2 1.4-13.6 7.8-20.8 21.6-22.8 22.4 0 44.8 0 67.2 0 19.2 0 59.8 9.6 70.4-12.6 0 39 0 77.8 0 116.8 0 25.2 5.6 51.8-26 53.6-17.8 1.2-36 0-53.8 0-35 0-33.4 15.6-33.4 48 0 93.2 0.2 186.4 0.2 279.6-237.8-59.2-403.6-287-386.8-531.6 20-291.8 290.6-511.6 580.4-472.2 261.6 35.4 456.8 274 441.6 537-12.6 220.2-171.4 412.4-385.4 466.6z" />
<glyph unicode="&#xe90e;" glyph-name="pufa" d="M405.2 615.4c-96 189.2-338.6 160.4-391.8-0.8 0 0-7.4-52.2-13.2-106.6v-330l155.8-146.4v402.8c-0.2 0.2 16.8 192.8 249.2 181v0zM176.4 308.2c0 0 255.8-35.2 264.6 226.4-4 245.6 311.4 262 397 85.4 0 0-223.4-3-247-188.2 0 0 3-228.6-173.4-252.2 0 0-191.2-33.2-241.2 128.6v0zM618.8 311.2c96-189.2 334.2-158.2 387.4 3 0 0 16.2 36.8 17.6 104.4v330l-155.6 146.2v-402.8c-0.2 0-17-192.6-249.4-180.8v0z" />
<glyph unicode="&#xe90f;" glyph-name="zhongguo" d="M512 972.8c-266.6 0-494.4-213.4-511-479.6s181.8-507.2 446.8-540.4c264.8-33.2 517.8 150 567.4 412.6 24.2 128.2-0.2 266.4-70.2 376.8-68 107-176.6 183.4-299.4 214.4-43.6 10.8-88.6 16.2-133.6 16.2zM115.8 460.8c0 191.8 142.8 365.2 333.4 395.4 0-45.8 0-91.6 0-137.2 0-12.4 4.4-33.6-1-45-4.4-8.8-46.8-3.4-56.6-3.4-54.8 0-107.8-32.4-121-88.6-5.8-24.6-2.2-53-2.2-78.2 0-45.4-1.4-91 0-136.4 0-40 21.8-77.8 56.2-98 24.4-14.4 50.6-15.4 78-15.4 13 0 42 6.4 46.8-8.2 3.6-11.2 0-32.2 0-44 0-14.6 0-29.4 0-44 0-29.4 0-58.6 0-88-190 30.4-333.6 199-333.6 391zM396.4 366c-18.8 0-11.4 43.6-11.4 55.4 0 22.4 0 44.8 0 67.2 0 12.2 0 24.2 0 36.4 0 9-3.2 23.6 2 31.4 8.4 12.2 52.2 5 65.8 5 43 0 86.2 0 129.2 0 13.2 0 57.8 7.6 61.2-9 4.4-20.2 0.2-46.2 0.2-67 0-29.8 0-59.8 0-89.6 0-15.4 2.6-29.6-16.8-29.6-17 0-34 0-51 0-59.6-0.2-119.4-0.2-179.2-0.2zM574.8 70c0 45.6 0 91 0 136.6 0 17.8-8.8 46.2 14 47.6 27.8 1.8 56.2-3.4 83.6 4 57.8 15.8 83.2 67.6 83.2 123.6 0 21.8 0 43.6 0 65.4 0 22.6 0 45.2 0 67.8 0 34.2 3.4 68.8-15.4 99.4-29.8 48.4-78 56.2-129.8 56.2-7 0-28-3.4-33.2 0.8-6 5.4-2.4 20.4-2.4 27.4 0 52.4 0 104.8 0 157.4 190.6-30.4 333.4-203.6 333.4-395.4 0-192.2-143.6-360.6-333.4-390.8z" />
<glyph unicode="&#xe910;" d="M877.6 619.2c-2.6 0-4.6 2-4.6 4.6v19c0 2.6 2 4.6 4.6 4.6h124.8c2.6 0 4.8-2.4 4.8-4.6v-18.8c0-2.6-2.4-4.6-4.8-4.6h-124.8v-0.2zM869.8 559.4c-2.6 0-4.6 2-4.6 4.6v18.8c0 2.4 2 4.6 4.6 4.6h139.8c2.6 0 4.6-2.4 4.6-4.6v-18.8c0-2.6-2-4.6-4.6-4.6h-24.8v-80.2c0-9.8-8-17.6-17.8-17.6h-67.8c-2.6 0-4.6 2-4.6 4.6v16.6c0 2.6 2 4.6 4.6 4.6h51.2v72h-80.6zM780.8 534.8c-2 0-3.4 0.8-3.4 2 0 0.4 0.2 0.8 0.8 1.6l37.8 46.8c2.8 3.4 3.6 4.2 6.2 4.2h29.6c1.6 0 2.6-0.8 2.6-2.4 0-0.8-0.2-1.2-0.8-2l-30.8-38.6h14v-80.2c0-2.4-2.4-4.6-4.6-4.6h-24.4c-2.6 0-5 2-5 4.6v68.6h-22zM780.8 594.6c-2.4 0-3.4 0.8-3.4 2l0.6 1.2 38 47c2.8 3.6 3.6 4.2 6.2 4.2h29.6c1.6 0 2.6-0.8 2.6-2 0-1-0.4-1.8-0.8-2.6l-38.4-48c-1.4-1.6-2.4-2-5.2-2h-29.2v0.2z" />
<glyph unicode="&#xe911;" d="M721.6 532.6c2.8 3 3.8 3.8 6.2 3.8h22.2c2.8 0 4.2-0.4 4.2-2 0-0.8-0.8-1.8-2.4-3.6l-29.2-33.6 2-3.4c3.4-5.6 3.8-6.4 5.2-7.8 1.8-1.8 2.8-2 8.8-2h12.2c2.4 0 4.6-2.4 4.6-4.6v-13c0-2.4-2.4-4.6-4.6-4.6h-18c-15.8 0-24 3.8-30.2 14l-32.6 55.8c-0.6 1.2-1 2-1 2.8 0 1.2 0.8 2 2.6 2h24c3.4 0 4.2-0.8 6.8-5l7.8-13 11.4 14.2zM654.4 585v-16.6h68.4v16.6h-68.4zM722.6 624.2h-68.4v-16.6h68.4v16.6zM654.4 484h23c2.6 0 5-2 5-4.6v-13c0-2.4-2.4-4.6-5-4.6h-34.2c-9.8 0-17.8 8-17.8 17.6v150.6c0 9.6 8 17.6 17.8 17.6h91c9.8 0 17.6-8 17.6-17.6v-66.4c0-9.8-7.8-17.8-17.6-17.8h-80v-61.8h0.2zM580.4 544.2h27.6c2.6 0 5-2 5-4.6v-15.6c0-2.6-2.2-4.6-5-4.6h-27.6v-35.4h22c2.4 0 4.6-2 4.6-4.6v-13c0-2.4-2.4-4.6-4.6-4.6h-34.4c-9.6 0-17.6 8-17.6 17.6v40h-22.6c-2.6 0-4.6 2-4.6 4.6v15.6c0 2.6 2 4.6 4.6 4.6h22.6v20.4h-22.6c-2.6 0-4.6 2-4.6 4.6v15.8c0 2.6 2 4.6 4.6 4.6h80.2c2.6 0 5-2 5-4.6v-15.8c0-2.6-2.4-4.6-5-4.6h-27.6v-20.4zM608 633.8c2.6 0 5-2 5-4.6v-15.8c0-2.4-2.4-4.6-5-4.6h-51.8l-3.6-6.2c-2-3.8-2.8-4.4-6.8-4.4h-23.8c-3.2 0-3.8 0.6-3.8 1.8 0 0.6 0.2 1.2 1 2.6l23.6 42.6c1.8 3.4 2.6 4.2 5.4 4.2h25.8c2.6 0 3.6-0.6 3.6-1.6 0-0.8-0.2-1.6-0.8-2.6l-6.4-11.4h37.6z" />
<glyph unicode="&#xe912;" d="M336.8 548.8c0-12.6 0.8-13.8 15.2-20.6l27.4-12.4 27.4 12.4c14.8 7.2 15.2 8 15.2 20.6v9h-85.4v-9h0.2zM361.4 651.4c0 2.8 2 5 4.6 5h26.6c2.6 0 4.6-2 4.6-5v-9.4h74.8c12 0 21.8-9.8 21.8-22v-13.2c0-2.6-2-4.6-4.6-4.6h-17.6c-2.6 0-4.6 2-4.6 4.6v11.6h-174.6v-11.6c0-2.6-2-4.6-4.6-4.6h-17.4c-2.6 0-5 2-5 4.6v13.2c0 12.2 10 22 22.2 22h74v9.4h-0.2zM268 557.8c-2.8 0-5 2-5 4.6v16.6c0 2.6 2 4.6 5 4.6h36v15.6c0 2.6 2 4.6 4.6 4.6h23.4c2.8 0 5-2 5-4.6v-15.6h85.4v15.2c0 2.8 2 5 5 5h23.2c2.6 0 4.6-2 4.6-5v-15.2h34.6c2.6 0 4.6-2 4.6-4.6v-16.6c0-2.6-2-4.6-4.6-4.6h-34.6v-9.6c0-21.4-6.2-29-33.6-41.4l-11.4-5.2 2-0.8c14-6.2 24.8-8.8 36.8-8.6h36.4c2.6 0 4.6-2.4 4.6-5v-16.2c0-2.6-2-4.6-4.6-4.6h-36.4c-18.8 0.2-28.4 2.6-50.2 12.4l-19.2 8.6-19.2-8.6c-22.8-10-30-12-50.2-12.4h-36.4c-2.6 0-4.6 2-4.6 4.6v16.2c0 2.6 2 5 4.6 5h36.4c11.6 0 24.8 3.2 36.8 8.6l2 0.8-11.4 5.2c-28 13-33.2 19.4-33.6 41.4v9.6h-36z" />
<glyph unicode="&#xe913;" d="M195.2 605h26.2c2.2 0 3-0.8 3.2-2.4 0-0.6-0.4-1.6-1.2-3.4l-26.6-52.2c-1.8-3.6-3.2-4.4-8.6-4.4h-26.8c-2 0-3 0.8-3 2.4 0 0.6 0 1 1.2 3.4l27 52.2c1.6 3.4 3.4 4.4 8.6 4.4v0zM96.8 548.4c1-1.8 1.2-2.8 1.2-3.4 0-1.6-1-2.4-3.2-2.4h-26.2c-5.4 0-6.8 0.8-8.6 4.4l-27 52.2c-0.6 1.4-1 2.6-1 3.4 0 1.6 1 2.4 3 2.4h26.2c5.2 0 6.8-0.8 8.6-4.4l27-52.2zM18.6 500.8c-2.8 0-5 2-5 5v16.8c0 2.6 2 5 5 5h91.4v92.8h-84.4c-2.6 0-4.6 2.4-4.6 5v16c0 2.6 2 4.6 4.6 4.6h204.6c2.6 0 4.6-2 4.6-4.6v-16c0-2.6-2-5-4.6-5h-84v-92.8h92.2c2.8 0 5-2.4 5-5v-16.8c0-2.8-2-5-5-5h-92.2v-35.2c0-2.6-2.4-4.6-5-4.6h-26.6c-2.6 0-4.6 2-4.6 4.6v35.2h-91.4z" />
<glyph unicode="&#xe914;" d="M625.8 392.4c0 4.4 3.4 7.8 7.8 7.8h31.6c10 0 18-2.8 23-7.8 3.8-3.8 5.8-8.6 5.8-14.6v-0.2c0-10.6-6-16.2-12.6-19.6 10.2-3.6 17.4-9.4 17.4-21.4v-0.2c0-15.6-13-24-32.4-24h-32.8c-4.4 0-7.8 3.4-7.8 7.8v72.2zM662 363.2c10 0 16.6 3.8 16.6 12v0.2c0 7-5.6 11.2-15.4 11.2h-22.2v-23.4h21zM666.6 326c10.6 0 17 4.2 17 12v0.2c0 7.4-5.8 11.8-18 11.8h-24.4v-24h25.4zM711.4 322.4l32.6 72.8c1.8 4 4.8 6.2 9.2 6.2h0.8c4.4 0 7.4-2.4 9.2-6.2l32.6-72.8c0.6-1.2 0.8-2.2 0.8-3.2 0-4.2-3.2-7.4-7.2-7.4-3.6 0-6.2 2.2-7.6 5.4l-7.2 16.4h-42.6l-7.4-17c-1.2-3.2-3.8-4.8-7.2-4.8-4 0-7.2 3.2-7.2 7.2 0.2 1 0.6 2.2 1.2 3.4v0zM768.8 347.2l-15.4 35.4-15.4-35.4h30.8zM813.4 392.8c0 4.2 3.4 7.8 7.8 7.8h1.6c3.8 0 5.8-1.8 8-4.6l44-56.8v54c0 4.2 3.4 7.6 7.6 7.6s7.6-3.4 7.6-7.6v-73.8c0-4.2-3.2-7.6-7.6-7.6h-0.6c-3.6 0-5.8 1.8-8 4.6l-45.2 58.4v-55.6c0-4.2-3.4-7.6-7.6-7.6s-7.6 3.4-7.6 7.6v73.6zM912.6 393.2c0 4.2 3.4 7.6 7.8 7.6 4.2 0 7.6-3.4 7.6-7.6v-37.2l41.6 41.8c1.8 1.8 3.6 2.8 6.4 2.8 4.2 0 7.2-3.4 7.2-7.2 0-2.4-1-4.2-2.8-5.8l-27.4-26.4 29.6-36.8c1.2-1.6 2.2-3.2 2.2-5.6 0-4.2-3.4-7.6-7.8-7.6-3 0-5 1.4-6.6 3.6l-28.2 36-14.4-13.8v-18.2c0-4.2-3.4-7.6-7.6-7.6-4.4 0-7.8 3.4-7.8 7.6v74.4h0.2z" />
<glyph unicode="&#xe915;" d="M255.2 401.2h-13.2c-1.2 0-2-1-2-2v-60.6c-7 7.8-52.8 59.8-54 61-1.2 1.4-2.8 1.6-4 1.6h-13.2c-1.2 0-2-1-2-2v-83.6c0-1.2 1-2 2-2h13.2c1.2 0 2 1 2 2v61c5-5.6 53.2-60.4 54.4-61.6 1.2-1.4 2.8-1.6 4-1.6h12.6c1.2 0 2.2 1 2.2 2v83.6c0.2 1.2-0.8 2.2-2 2.2v0zM332 402.4h-30.6c-16.6 0-30-12-30-26.6v-37c0-14.8 13.4-26.6 30-26.6h30.6c16.6 0 30 12 30 26.6v23.6h-46.4v-12.4c0-1.2 1-2 2-2h25.4v-17c0-1.2-1-2.2-2-2.2h-48.6c-1.2 0-2 1-2 2.2v52.6c0 1.2 1 2 2 2h48.6c1.2 0 2-1 2-2v-10.2c0-1.2 1-2 2-2h14.8c1.2 0 2 1 2 2v2.2c0.2 14.8-13.2 26.8-29.8 26.8v0zM585.4 401.2h-13.2c-1.2 0-2-1-2-2v-60.6c-7 7.8-52.8 59.8-54 61-1.2 1.4-3 1.6-4 1.6h-13.2c-1.2 0-2-1-2-2v-83.6c0-1.2 1-2 2-2h13.2c1.2 0 2 1 2 2v61c5-5.6 53.2-60.4 54.4-61.6 1.2-1.4 2.8-1.6 4-1.6h12.6c1.2 0 2 1 2 2v83.6c0.4 1.2-0.6 2.2-1.8 2.2v0zM446.6 398.8c-0.8 1.4-2.2 2.4-3.8 2.4h-13.2c-1.6 0-3-1-3.8-2.4l-41.2-81.2c-1.4-2.6-0.2-4.2 2.2-4.2h13c2 0 2.6 0.4 3.6 2.4l32.8 65.4 32.8-65.4c1-1.8 1.6-2.4 3.6-2.4h13c2.4 0 3.6 1.6 2.2 4.2l-41.2 81.2zM98.2 357.6c0-1.2-1-2-2-2h-45v30.2h44.8c1.2 0 2-1 2-2.2v-26h0.2zM88.2 401.2h-54c-1.2 0-2-1-2-2v-83.6c0-1.2 1-2 2-2h15c1.2 0 2 1 2 2v24.6h37c16.6 0 30 9.8 30 24.6v9.8c0 14.6-13.4 26.6-30 26.6v0zM148 401.2h-14.8c-1.2 0-2-1-2-2v-83.6c0-1.2 1-2 2-2h14.8c1.2 0 2 1 2 2v83.6c0.2 1-0.8 2-2 2v0z" />
<glyph unicode="&#xe916;" d="M447.6 339.6h-22.6c-1.2 0-2-1-2-2v-22c0-1.2 1-2.2 2-2.2h22.6c1.2 0 2 1 2 2.2v22c0 1-0.8 2-2 2v0z" />
<glyph unicode="&#xe917;" glyph-name="zhaoshang" d="M989.6 300.6h-69l-5.2-0.4-2-0.2-0.6-0.2-1.6-0.4-1.6-0.8-0.6-0.4-22.4-41.8-26.6-43.6-16.8-21.2-18.8-18.8-10.4-8-10.8-7-11.4-5.2-11.6-3.8-9.4-1.4-9.6-0.8-519.6 0.4-7.2 1.6-4.6 1.4-4 2-5.6 3.2-11 7.8-4.4 3.8-13.4 13.6-53.8 65.6-13.6 19.6-4.4 7.6-2 3.8-0.4 1.6-0.2 1.4v0.8l267.2 540.2 24.2-48.4 72.4-155.6 27.4-56 5-8.8 1.2-1.6 0.4-0.4 102 202 28.4 58.4 3.6 8.6 0.4 1.4 0.4 0.4 140.6-253.2h213.8l-2.6 13.2-8.4 26-11 25.8-25.2 48.4-30.4 46.8-38 41-43.6 35.8-48.2 30-51.8 24.2-54.2 19-55.6 13.6-56 8-54.6 2.8-90.4-3.6-45.6-3.6-45.6-10.8-45-16.8-65-34-60-43.6-51.8-49.8-42.2-53.8-33.2-58.6-14.2-32.6-11.4-33.6-9.4-44.6-1.4-21.6-2-28.6 2-39.2 7-38.6 15.4-50.8 20.8-48.8 25-45.8 33.6-48.8 38.8-43.2 43.6-37.2 47.8-31.6 51.4-25 54.2-19 56.8-11.8 58.6-4.8 42.4-1.4 94 7.4 91.6 21.6 55.8 19 54 24.4 50.6 30.6 35 26.8 31.8 31 28 35 28 43.2 9.4 19.2 3.4 8.8 2 6.4 1.4 6.4zM755.8 278.8v0.2l-0.2 1-2 5.2-15.4 33.2-84 174.8-31.8 64-5 9.2-0.4 1.2-0.2 0.2-150.6-263.8-132.8 263.8-144-289h566.4zM1005.4 348.2h-111l13.2-23h80.4l2 0.2 1.4 0.4 1.2 0.2 1 0.4 1.2 0.8 1 0.8 1.2 1 1.6 1.6 1.6 2 1.2 2.2 2.8 6.8 1.2 6.6zM1016.4 387h-141.6l11.2-23h116l4.4 0.2 1.6 0.4 1.2 0.2 1.2 0.4 1.4 0.8 1.2 1 0.8 0.8 0.4 0.8 0.4 1.2 0.6 1.2 0.8 2.4 0.2 3v10.6h0.2zM1020 431.4h-164.8l13-25h142.8l1.2 0.2 2 0.4 2.4 0.8 1 0.4 1 0.8 0.8 0.8 0.4 0.8 0.4 1 0.8 1 0.4 1 0.2 2v4.8l-1.6 11zM1018 445.4l2 14.4-2 12.4h-180.4l12.8-26.8h167.6zM1016.4 486.2l-0.8 7.6-0.4 3.6-1 2.4-0.4 2.4-0.8 1.2-0.8 1.4-0.8 1.2-1.8 1.6-1.4 1-1.8 0.8-2 1-4 0.4-2.2 0.2h-178.8l13-25h184v0.2zM1007.2 528.4l-3.4 23.6h-207.2l11.6-23.6h199z" />
<glyph unicode="&#xe918;" glyph-name="zheshang" d="M456.2 536.2l92.4 96.4-239.6 229.6-92.2-96.2 239.4-229.8zM477.6 272.6l-90-93.8 72.8-69.6-14.6-15.2-290.6 278.6 14.4 15.2 75.2-72 90 93.8-239.6 229.6-89.4-93.2 92.8-89-98.6-102.8 423-405.4 98.6 102.8 92.6-88.8 89.4 93.2-226 216.6zM563.2 647.8l85 88.8-75.2 72 14.6 15.2 290.8-278.6-14.6-15.2-72.8 69.6-85-88.8 226-216.6 87.8 91.6-92.8 88.8 88.8 92.8-422.8 405.4-89-92.8-92.6 89-87.8-91.6 239.6-229.6zM349.4 424.8l92.2 96.2-239.4 229.8-92.4-96.4 239.6-229.6zM691.4 495.8l-92.2-96.4 225.8-216.6 92.4 96.2-226 216.8zM584.4 384.2l-92.2-96.4 226-216.6 92.4 96.4-226.2 216.6z" />
<glyph unicode="&#xe919;" glyph-name="zhongxin" d="M283.6 904.2l1.8 6.6 3.6 6.4 5 5 5 3.2 49.6 19.6 13.2 3.2 13.2 5 26.4 6.8 26.6 5 15 1.8 13.2 1.8 28.6 4.2h56.6l56.6-6.8 28.4-5.2 26.6-6.6 26.6-8.4 24.8-9.8 24.8-11.6 5-3.2 5-5 3.2-5v-3.2l1.8-3.2v-5l-1.8-5-3.6-6.4-3.2-3.2-3.2-1.8-9.8-5-13.2-6.6-15-8.4-16.8-11.6-8.4-6.6-9.8-8.4-9.8-11.6-9.8-9.8-8.4-9.8-6.6-9.8-11.6-20-9.8-20-5-18.2-5-16.8-3.2-13.2-1.8-9.8v-741.8l-18.2-3.2-18.2-1.8h-77.4l-20 3.2-18.2 1.8v745l-1.8 11.6-3.2 15-5.4 15.2-6.6 16.8-8.4 18.2-5 9.8-6.6 9.8-6.6 8.4-6.6 9.8-9.8 9.8-8.4 9.8-9.8 8.4-8.4 6.6-9.8 6.6-8.4 5-15 8.4-11.6 6.6-9.8 5-3.2 1.8-6.4 6.4-1.8 3.2v9.8h-0.2zM745.4 4l-26.6-13.2-28.4-11.6-30-9.8-28.4-6.8v730.2l1.8 18.2 5 16.8 5.2 15 5 13.2 8.4 13.4 6.6 11.6 16.8 19.6 9.8 8.4 8.4 8.4 16.8 11.6 8.4 5 8.4 3.2 13.2 6.4v-840.4h-0.4zM787 894.2l46.8-33.6 21.6-18.2 20-18.2 20-20 16.8-21.6 9.8-11.6 8.4-11.6 30-46.8 13.4-24.8 11.6-26.6 19.6-53.2 13.2-56.4 3.6-30-1.8-5-3.2-5-5-6.6-6.6-5-3.2-3.2-10-3.6-6.6-1.8h-6.6l-8.4 1.8-13.2 3.6-13.2 6.4-8.4 6.6-8.2 8.2-6.6 8.4-3.2 8.4-5 9.8-1.8 1.8-1.8 3.2-3.2 1.8h-6.4l-3.2-1.8-5-3.2-3.2-6.6-6.6-9.8-9.8-16.4-3.2-11.6-5-11.6-1.8-8.4v-6.6l-1.8-16.8v-9.8l1.8-9.8 3.2-11.6 10-23.2 1.8-6.6 3.2-5 8.4-9.8 6.6-8.4 6.4-3.6h5l1.8 1.8 3.2 1.8 3.2 5 5 11.6 6.6 8.4 6.6 9.8 5 3.2 5 5 5 3.2 13.2 6.4 6.6 1.8 8.4 1.8h8.4l13.2-3.6 6.6-5 6.6-3.2 5-5 3.2-5 3.2-3.2v-3.2l-3.2-30-6.6-28.2-3.2-13.4-3.2-15-19.6-53.2-11.6-26.6-13.4-24.8-30-46.8-16.8-23.4-9.8-9.8-8.4-11.6-40-40-45-35-23.4-15v864.6h-0.8zM240.2 27.4l-24.8 18.2-13.2 8.4-13.2 9.8-11.6 9.8-11.6 11.6-11.6 9.8-9.8 11.6-21.6 23.4-9.8 13.4-9.8 11.6-8.4 13.2-9.8 13.4-16.8 26.6-6.6 15-8.4 13.2-11.6 30-6.6 15-10 30-5 16.8-3.2 15-3.2 16.8-5.4 33.2-3.2 33.2-1.8 33.2v16.8l1.8 16.4v18l3.2 16.8 1.8 16.8 3.2 16.8 6.6 31.8 9.8 31.8 5 15 6.6 15 11.6 30 8.4 13.2 6.6 15 16.8 26.6 18.2 26.6 20 24.8 21.6 23.4 21.6 21.6 23.4 21.6 26.6 18.2 24.8 18.2v-375.2l-3.6-10-10-10-6.6-3.2-3.2-1.8-10-3.6h-10l-13.2 3.6-8.4 1.8-5 3.2-6.6 3.2-9.8 6.6-3.2 5-3.2 3.2-6.6 8.4-3.2 8.4-5 9.8-6.8 6.8h-6.4l-3.2-1.8-5-3.2-5-6.6-6.6-9.8-8.4-16.4-5-11.6-3.2-11.6-1.8-8.4v-6.6l-1.8-16.8v-9.8l1.8-9.8 6.4-23.2 5-11.6 3.2-6.6 3.2-5 6.6-9.8 8.4-8.4 6.4-3.6h5l8.6 8.6 5 11.6 5 8.4 8.4 9.8 5 3.2 5 5 10 6.4 6.6 3.2 8.4 1.8 6.6 1.8h8.4l13.2-3.6 6.6-3.2 5-3.2 8.4-8.4 5-6.6-1-377zM395.2-37.4l-30 8.4-28.2 8.4-13.2 6.6-13.2 5-26.4 13.2v840l11.6-5 16.8-8.4 8.4-6.6 8.4-5 8.4-6.6 8.4-8.4 16.8-19.6 6.6-9.8 8.4-11.6 5-13.2 10-30 3.2-18.2v-738.6h-1z" />
<glyph unicode="&#xe91a;" glyph-name="daikuan" d="M386.8 304.2c0-85.4-1.2-173.8 0.6-262.2 0.6-31-9-41-39.6-39.2-38.6 2.4-77.6 2.4-116.2 0-30.4-1.8-37.4 10.4-37 38.6 1.4 95.2 0.2 190.4 0.8 285.6 0.2 19-1 32.4-23.8 39.6-25.2 7.8-38.8 29.6-38 56.6 1.8 65.2 3.6 130.6 8.4 195.6 1 14.8 11.2 31.4 21.8 42.8 67.2 70.6 134 141.6 204.8 208.4 19.8 18.6 51.8 31.8 79 33.4 78.4 4.4 157.2 2 235.6 1 9.8-0.2 19.6-9 29.4-13.8-10.2-5.2-20.4-14.6-30.8-14.8-76.4-1.2-152.8 1.4-229-2-23-1-50.2-12.4-66.8-28-66.4-63.4-130-130-192.8-197-11.6-12.4-20-31.8-21.6-48.8-4.6-55-5.4-110.4-7.8-165.8-0.8-20.2 2.2-42.4 26.4-41.2 20.8 1 43.4 11 39.4 41.6-1.6 12 0.4 24.4 0.6 36.4 1.6 120.2 5.6 128.4 97.8 203 45.8 37 114.6 32.2 153.4-10.8 37.6-41.6 35.6-104.2-5.8-147-30.8-31.8-63-62.2-94-93.8-22.4-22.8-24.2-49.2-6.2-67.4 18.2-18.2 44.8-16.4 67.6 5 71.2 66.4 143.2 131.8 212.8 199.6 25 24.4 47.4 53 65.6 83 20 33 45.8 52.6 83.4 58.6 24 3.8 47.8 9.6 71.8 12.2 8.2 0.8 17-5.4 25.6-8.4-6-6.4-11.8-18.6-17.8-18.6-86-0.4-130.2-55.8-181.4-116.6-74.6-88-165.2-162.6-251.2-240.6-14.4-13.2-39.2-15.4-65-25zM449.8 647.8c-0.6 4.6-1.2 9.2-1.8 13.8-23.2 1.8-47.4 9-69.2 4.4-53.4-11-81.6-72.6-57.6-122.8 4.4-9.4 19.6-17.4 31-19 20.6-2.8 42.2 1.4 62.8-0.8 28.4-3 43.6 12.8 54.8 34.2 11 20.8 14.2 42.6-0.2 66.2-15.2-10.2-27.4-20-41.2-26.6-7.4-3.6-17.4-1.6-26.4-2.2 3.6 8.8 5.2 19.8 11.4 26 10.6 10.6 24 18 36.4 26.8zM281.8 585.8c-38.2-58.6-12.8-122.2-25-187.2 29.6 2.4 59.8-4.2 75.4 8 27.4 21.4 45.8 54.2 71.6 86.8-69.6-6.6-126.4 2.8-122 92.4zM229.2 92.4c36.8 0 72-1 107 0.8 7.2 0.4 13.8 11 20.8 16.8-6.8 5-13.2 13.8-20.2 14.2-29.6 1.6-59.4 0-89 1-23.4 0.6-25.8-10.6-18.6-32.8zM353.6 279.6c6 18.6 6 31.2-18 30.8-29.6-0.6-59.2-0.6-88.8 0-24 0.6-23.8-12.2-18-30.8 41.6 0 82.8 0 124.8 0zM228.2 185c-7.4-24.4 1.4-31.4 22-30.8 27.6 1 55.4 0.8 83 0 24.6-0.6 27.8 10.6 20 30.6-42.2 0.2-83 0.2-125 0.2zM229.4 32.2c35.2 0 71.2-0.8 107 0.6 7 0.2 13.8 8.8 20.6 13.6-6.8 6-13.4 16.6-20.6 17-29.4 2-59.2 0.2-88.8 1-23.2 0.8-25.6-10.6-18.2-32.2zM342.4 338.8c-8.6 34.2-47.6 42.6-126.8 24.4 14.2-11.4 22.2-23 30.8-23.6 31.6-2.2 63.6-0.8 96-0.8zM290.2 216c15.4 0 31-1.6 46 0.6 7.4 1 13.8 9 20.6 13.8-6.2 5.4-12.2 15.4-18.6 15.8-31.8 1.6-63.8 1.4-95.6 0-5.8-0.2-11.4-9-17-13.8 6.2-5.4 11.6-14.6 18.4-15.6 15.2-2.4 30.8-0.6 46.2-0.8zM517.2 92.4c22.2 0 44.2-0.8 66.4 0.2 19.6 0.8 27-7 27.8-27 2.4-62.2 3.2-62.2-58.8-62.2-34.2 0-68.6 1-102.8-0.4-22.6-0.8-33.2 7-31 30.4 1 11 0.6 22.2 0 33.2-0.8 18.2 6.8 26.4 25.4 25.8 24.4-0.4 48.8 0 73 0zM577 33.6c7.4 23.8 0 31.8-21 31-27.4-1-54.8-0.8-82.2 0-24.4 0.6-27.8-10.2-19.4-30.8 41-0.2 81.2-0.2 122.6-0.2z" />
<glyph unicode="&#xe91b;" glyph-name="tie" d="M862.8 90.2c-233.8 0-467.6 0-701.6 0-32.6 10.8-53 33.6-65 65 0 145 0 290.2 0 435.2 12.8 29.2 27.8 56.6 63.6 61.6 16 2.2 32.2 2.8 48.4 2.8 49.2 0.4 98.4 0.2 147.8 0.2 1 17 1.4 28.8 2.4 40.6 3.8 40.6 21.8 71.8 59.4 89.8 11.4 5.4 23.8 8.8 35.6 13 39 0 78 0 117 0 4.6-2.2 9-5.4 13.8-6.8 48-13 72.8-41.2 78.8-90.4 1.8-14.6 2.4-29.4 3.6-43 4.8-1.4 7-2.6 9-2.6 47.4-0.2 94.8-0.4 142.2-0.6 70-0.2 84.4-9.4 109.8-71 0-140.8 0-281.4 0-422.2-10-34.4-30.4-59.4-64.8-71.6zM512.8 532c-83.8 1.4-162.8-72.8-160.2-157.8 2.8-90.8 61.8-157.6 157.8-159.2 89.6-1.4 155.8 61.6 160.2 156.8 3.6 84-72 158.8-157.8 160.2zM610.2 656c10 64.4-8 86.6-67.4 87.2-21.6 0.2-43.2 0.2-64.8 0-58-0.8-78.2-28.2-63-87 64.2-0.2 128.8-0.2 195.2-0.2zM450 343.2c15-16.2 29.8-32.4 44.8-48.8 3.2 1.4 6.4 2.8 9.8 4.2 0 16.8 2 33.8-0.8 50.2-1.6 9.2-9.6 21.2-17.8 24.4-25.8 10.6-42.2 25.8-40.4 55.4 1.6 26.8 16 43.4 41.2 52.2 9 3.2 16.6 10.4 26.2 16.6 14-25.6 65.8-18.4 62.8-76.6-19.6 15-34.4 26.4-49.8 38.2-15.2-45-8.8-55 27.6-79.2 14.2-9.4 24.8-31.4 27.6-49.2 3.6-23.6-10.4-42.4-33.8-53.6-13.4-6.4-24.6-16.8-35.6-24.6-10.2 7-26 14.8-37.8 26.6-14.8 14.6-26.2 32.6-39.2 49.2 4.8 5.2 10 10 15.2 15zM520.4 296c24.6 2 34.4 14.4 34.2 33.8-0.2 20.4-13.2 29.8-34.2 32.2 0-22 0-42.2 0-66zM492.4 397.4c3 1.8 6.2 3.6 9.2 5.4 0 18.2 0 36.4 0 54.6-3.2 1.2-6.2 2.6-9.4 3.8-6.6-11.2-17.8-22.2-18.2-33.4 0-10 12-20.2 18.4-30.4z" />
<glyph unicode="&#xe91c;" glyph-name="xinyongka" d="M929.6 505.8c0-102.8 0-205.6 0-308.4-274.2 0-548.2 0-822.4 0 0 102.8 0 205.6 0 308.4 274.2 0 548.2 0 822.4 0zM415.8 351.6c56.6 0 113.2-1.4 169.6 1.2 12 0.6 31.6 13.6 33.4 23.4 4 21.6-14.8 26.8-33.8 26.8-113.2-0.2-226.2 0.6-339.4-1.2-11.8-0.2-31.6-13.6-33.4-23.6-4-21.6 14.8-26.8 33.8-26.8 56.8 0.4 113.4 0.2 169.8 0.2zM748 352c18 0 36.8-2.8 53.8 1.2 9.4 2.2 22.6 15.6 22.6 24s-13.6 23.6-22 24.2c-34.8 2.8-70 2.8-104.8 0-8.6-0.6-22.4-15.4-22.6-24 0-8.4 12.8-21.8 22.2-24.4 16-3.8 33.8-1 50.8-1zM107.2 557.2c0 51.4 0 102.8 0 154.2 274.2 0 548.2 0 822.4 0 0-51.4 0-102.8 0-154.2-274.2 0-548.2 0-822.4 0z" />
<glyph unicode="&#xe91d;" glyph-name="chajiaoyi" d="M864 960h-768c-52.8 0-96-43.2-96-96v-832c0-52.8 43.2-96 96-96h768c52.8 0 96 43.2 96 96v832c0 52.8-43.2 96-96 96zM832 64h-704v768h704v-768zM256 512h448v-64h-448zM256 384h448v-64h-448zM256 256h448v-64h-448zM256 640h448v-64h-448z" />
<glyph unicode="&#xe91e;" glyph-name="chaedu" d="M480 896c-265.096 0-480-214.904-480-480s214.904-480 480-480c265.098 0 480 214.902 480 480s-214.902 480-480 480zM480 32c-212.078 0-384 171.922-384 384s171.922 384 384 384c212.076 0 384-171.922 384-384s-171.924-384-384-384zM608 384c17.674 0 32 14.326 32 32s-14.326 32-32 32h-68.208l94.832 142.25c9.804 14.704 5.83 34.572-8.876 44.376-14.704 9.802-34.572 5.83-44.376-8.876l-101.372-152.062-101.374 152.062c-9.804 14.706-29.672 18.68-44.376 8.876-14.706-9.804-18.678-29.672-8.876-44.376l94.834-142.25h-68.208c-17.672 0-32-14.326-32-32s14.328-32 32-32h96v-64h-96c-17.672 0-32-14.326-32-32s14.328-32 32-32h96v-96c0-17.674 14.328-32 32-32s32 14.326 32 32v96h96c17.674 0 32 14.326 32 32s-14.326 32-32 32h-96v64h96z" />
<glyph unicode="&#xe91f;" glyph-name="chajifen" d="M1011.328 825.504c-110.752 83.928-281.184 134.034-455.91 134.034-216.12 0-392.226-75.456-483.16-207.020-42.708-61.79-66.33-134.958-70.208-217.474-3.454-73.474 8.884-154.726 36.684-242.146 94.874 284.384 359.82 507.102 665.266 507.102 0 0-285.826-75.232-465.524-308.192-0.112-0.138-2.494-3.090-6.614-8.698-36.080-48.278-67.538-103.162-91.078-165.328-39.87-94.83-76.784-224.948-76.784-381.782h128c0 0-19.43 122.222 14.36 262.79 55.89-7.556 105.858-11.306 150.852-11.306 117.678 0 201.37 25.46 263.388 80.124 55.568 48.978 86.198 114.786 118.624 184.456 49.524 106.408 105.654 227.010 268.654 320.152 9.33 5.332 15.362 14.992 16.056 25.716s-4.040 21.080-12.606 27.572z" />
<glyph unicode="&#xe920;" glyph-name="heimingdan" d="M575 956c123.8-31.8 203.4-116.4 231.6-241 28.6-126.2-10.2-233.8-107.2-320 0 0-0.2-0.2-0.2-0.2-10.2-9-8.6-25.4 3.2-32.4 13.4-7.8 26.2-15.2 39.2-22.2 29.2-15.8 33.4-41 20.6-67.4-12.8-26.2-44.6-30-71.6-12.6-222.4 142.6-516 17-566.8-242.2-0.6-2.6-0.2-5.6-1.6-7.8-11-19.6-18.4-49.6-34.6-55.6-13-4.8-32.2 7.2-50.2 16-6.8 3.4-11.2 10.4-11.2 18 0 10.6 0 21.2 0 31.8 0 2.2 0.4 4.2 1 6.2 3.4 10.2 7 20.4 9.8 30.8 35.4 136.6 115.6 237.8 240 304.4 0 0 0.2 0.2 0.2 0.2 12.2 6.6 13.8 23.4 3.4 32.4-0.2 0.2-0.6 0.4-0.8 0.6-95.4 85.4-134.6 191.8-107.4 316.8 27.2 124.8 106.8 205.4 229.4 243.2 0 0 68 28.2 173.2 1zM257.8 644.6c-0.6-128.2 101-231.4 229.6-233.2 128.6-2 235.4 103.6 235 232.4-0.2 127.4-104 230.6-232.2 230.8-128.4 0.2-231.8-102-232.4-230zM776-51.2c-43.4 35-44.6 53.2-5.2 92.6 15 15 30.8 29 58.6 55.2-25.2 19.4-47.8 35-68.4 53.2-21.8 19.4-27 44-5.6 66.4 21.8 22.8 46 16.6 66.4-4 18.6-18.8 35.6-39 62.4-68.4 17.4 22 29 39.6 43.6 54.4 41 42.2 58.8 41.4 96.4-1.4 0-8 0-16 0-24-25.2-27-50.2-54-79.6-85.6 27.6-25.8 53.6-50 79.6-74.4 0-21.4 0-42.6 0-64-21.4 0-42.6 0-64 0-25 26.2-50 52.4-76.2 80-30.8-29.4-57.2-54.6-83.8-80-8.2 0-16.2 0-24.2 0z" />
<glyph unicode="&#xe921;" glyph-name="neibutongdao" d="M798.8 133.8c-159.6 0-312.2 0-469.2 0 0 44.2 0 85.2 0 126 7.2 2 14.6-2 21.8 0 10.2-25.6 20.6-45.4 32.2-74.8 118.2 0 238.2 0 364.8 0 0 175 0 347.2 0 525.4-119.2 0-238.8 0-364.4 0-9-22.6-19.6-48.2-30.4-75.2-7.6 0.4-15.2-0.4-22.8 0-3.6 40-7 79.8-11.2 126.8 162.2 0 317 0 479 0 0.2-206 0.2-413.2 0.2-628.2zM359.6 295.6c35.8 33.4 63.4 59.2 105.6 98.4-88.6 0-162 0-240.2 0 0 39.8 0 67.8 0 106.8 74.8 0 148.8 0 242.4 0-44.2 42.2-72.6 69.2-103 98.2 101.2-35.6 270.8-117 318.4-142.8-68.2-37.2-257.8-142-323.2-160.6z" />
<glyph unicode="&#xe922;" d="M266.778 584.24c0-103.437 0-206.592 0-310.17-1.058 0-2.117 0-3.105 0-24.625 0-49.249-0.353-73.803 0.071-29.211 0.564-57.645 5.292-84.387 17.71-15.17 7.056-28.576 16.369-39.159 29.493-13.476 16.793-19.333 36.196-19.897 57.504-0.423 16.652 2.822 32.739 6.562 48.826 8.114 35.561 16.158 71.122 24.201 106.683 0.212 0.776 0.282 1.623 0.423 2.822-17.145 0-34.15 0-51.295 0 0 15.805 0 31.186 0 46.85 20.673 0 41.206 0 62.091 0 1.199 5.080 2.399 10.019 3.457 15.029 9.525 42.193 19.121 84.387 28.576 126.58 0.353 1.482 0.635 2.47 2.611 2.47 23.002-0.071 46.074-0.071 69.076-0.071 0.353 0 0.706-0.071 1.411-0.212-10.795-47.838-21.661-95.605-32.527-143.725 35.42 0.141 70.487 0.141 105.766 0.141zM195.232 319.932c0.071 1.341 0.212 2.187 0.212 2.963 0 70.557 0 141.115 0.071 211.672 0 2.117-0.494 2.893-2.752 2.893-13.265-0.141-26.459-0.071-39.724 0-1.976 0-2.681-0.564-3.105-2.54-8.82-39.3-17.639-78.601-26.741-117.831-3.387-14.535-5.715-29.070-3.316-43.957 3.105-19.756 12.7-34.996 30.834-44.169 9.243-4.657 19.192-7.056 29.422-8.114 4.939-0.494 9.878-0.635 15.099-0.917z" />
<glyph unicode="&#xe923;" d="M399.637 681.327c-1.27 0-2.399 0-3.457 0-24.977 0-49.955 0.071-74.932-0.071-2.611 0-3.528 0.564-3.457 3.316 0.141 13.406 0.141 26.812 0 40.288 0 2.752 0.847 3.387 3.457 3.387 52.495-0.071 104.989-0.071 157.414-0.071 0.917 0 1.834-0.071 3.175-0.141-11.36-47.979-22.649-95.676-34.079-143.796 20.25 0 40.147 0 60.256 0 0-15.734 0-31.116 0-46.85-1.27 0-2.328 0-3.457 0-18.063 0-36.196-0.071-54.259 0.071-2.54 0-3.246-0.706-3.246-3.246 0.071-35.208 0.071-70.487 0.071-105.695 0-30.128 0.141-60.185 0.141-90.314 0-12.136-1.623-23.99-6.985-34.996-7.973-16.299-21.449-25.048-38.948-27.941-3.669-0.635-7.409-0.776-11.148-0.776-22.931-0.071-45.862 0-68.793-0.071-2.822 0-3.598 0.776-3.528 3.598 0.141 13.335 0.071 26.671 0.071 40.006 0 0.988 0 1.976 0 3.387 1.482 0 2.54 0 3.669 0 13.547 0 27.023-0.071 40.571 0.141 9.314 0.141 14.182 5.151 14.676 14.464 0.071 0.988 0.071 2.046 0.071 3.105 0 64.842 0 129.755 0 194.597 0 1.199 0 2.399 0 3.81-30.057 0-59.762 0-89.678 0 0 15.664 0 31.045 0 46.921 1.058 0 2.117 0 3.175 0 27.87 0 55.74 0 83.611-0.071 2.258 0 3.175 0.494 3.74 2.822 7.197 30.692 14.464 61.385 21.732 92.077-0.071 0.423 0 1.058 0.141 2.046z" />
<glyph unicode="&#xe924;" d="M985.476 537.602c-6.421 0-12.841-0.212-19.192 0.071-11.36 0.494-22.719 1.058-34.009 2.117-47.132 4.163-92.995 13.547-135.611 35.138-17.004 8.608-32.809 19.121-46.85 32.104-1.482 1.411-2.893 1.834-4.939 1.552-18.557-2.611-37.043-5.151-55.599-7.691-15.523-2.117-30.975-4.233-46.497-6.35-4.233-0.564-4.233-0.494-4.233-4.868 0-16.158 0-32.245 0-48.402 0-1.199 0-2.399 0-3.74-22.861 0-45.368 0-68.3 0 0 26.6 0 53.2 0 79.73-0.212 0.141-0.494 0.282-0.706 0.353-10.936-9.102-21.873-18.274-33.303-27.729 0 1.341 0 2.046 0 2.752 0 16.51 0 33.021 0 49.531 0 1.623 0.423 2.681 1.693 3.81 32.668 26.882 65.336 53.765 98.004 80.647 0.635 0.494 1.341 0.988 2.47 1.905 0-30.199 0-60.044 0-90.172 25.965 3.598 51.436 7.126 77.402 10.725-13.688 24.907-21.449 50.942-21.449 79.377 26.741 0 53.13 0 79.942 0 0.564-3.316 1.129-6.774 1.764-10.231 3.598-19.333 9.666-37.819 19.192-55.105 1.341-2.399 2.611-2.822 5.292-2.47 19.192 2.752 38.313 5.362 57.504 7.902 1.199 0.141 2.752-0.423 3.74-1.129 21.026-16.722 48.826-12.771 64.489 9.172 0.494 0.706 1.482 1.482 2.328 1.623 18.698 2.681 37.395 5.221 56.164 7.832 0.282 0.071 0.564-0.071 1.058-0.071 0-14.676 0-29.352 0-44.31-50.942-6.985-101.885-13.97-153.604-21.097 1.411-1.058 2.117-1.693 2.893-2.258 20.744-15.17 44.098-24.201 68.864-30.057 18.557-4.304 37.325-6.774 56.375-7.902 7.691-0.494 15.452-0.847 23.143-1.199 1.411-0.071 2.54-0.141 2.54-2.046-0.071-12.841-0.071-25.753-0.071-38.595-0.212-0.282-0.353-0.564-0.494-0.917z" />
<glyph unicode="&#xe925;" d="M555.781 345.756c0 1.27 0 2.187 0 3.105 0 35.984-0.071 71.969 0 107.953 0 9.525 0.988 18.98 4.516 27.941 7.338 18.627 21.591 28.858 40.712 32.88 5.362 1.129 10.866 1.552 16.369 1.552 107.459 0.071 214.988 0.071 322.447 0.071 10.090 0 19.827-1.905 28.999-6.209 17.569-8.326 26.388-22.931 28.999-41.629 0.776-5.715 0.988-11.501 0.988-17.287 0.071-34.855 0.071-69.711 0.071-104.566 0-1.129 0-2.187 0-3.74-1.129 0.282-1.976 0.423-2.822 0.635-21.943 6.138-43.887 12.277-65.901 18.274-2.399 0.635-3.105 1.693-3.105 4.233 0.071 28.152-0.141 56.305 0.141 84.457 0.141 11.854-5.856 18.839-18.839 19.051-0.635 0-1.27 0-1.976 0-85.939 0-171.878 0-257.817 0-1.834 0-3.74-0.071-5.574-0.282-9.666-0.988-15.593-7.479-15.593-17.075 0-28.787 0-57.575 0.141-86.433 0-2.258-0.635-3.175-2.822-3.74-22.155-6.068-44.24-12.348-66.395-18.486-0.564-0.353-1.27-0.423-2.54-0.706z" />
<glyph unicode="&#xe926;" d="M739.654 452.58c23.848 0 47.203 0 70.769 0 0-25.189 0-50.237 0-75.567 4.939-1.411 9.666-2.752 14.464-4.092 57.081-15.875 114.162-31.751 171.243-47.556 1.552-0.423 2.54-0.847 2.54-2.893-0.071-15.099-0.071-30.199-0.071-45.298 0-0.635-0.141-1.27-0.282-2.117-8.396 2.328-16.652 4.586-24.836 6.844-64.701 17.992-129.402 35.984-194.103 53.906-1.341 0.353-2.963 0.282-4.304-0.071-71.898-19.897-143.725-39.936-215.624-59.903-0.988-0.282-1.976-0.494-3.175-0.776-0.071 0.988-0.212 1.764-0.212 2.54 0 14.817 0.071 29.634-0.071 44.451 0 1.976 0.635 2.681 2.47 3.246 59.127 16.369 118.254 32.809 177.452 49.179 2.893 0.776 3.74 1.976 3.669 4.939-0.141 23.213-0.071 46.427-0.071 69.64 0.141 1.058 0.141 2.187 0.141 3.528z" />
<glyph unicode="&#xe927;" d="M884.649 204.006c6.985 7.267 15.382 10.584 25.401 10.019s17.639-5.292 24.060-13.053c1.199 1.129 2.258 2.117 3.316 3.105 6.421 6.28 14.041 9.525 23.002 9.878 8.89 0.353 17.287-0.847 24.625-6.35 8.255-6.209 12.912-14.747 13.194-24.836 0.635-19.474 0.494-38.948 0.706-58.422 0-1.834-0.706-2.47-2.47-2.399-5.221 0.071-10.442 0.141-15.664 0-2.328-0.071-2.822 0.917-2.822 2.963 0.071 15.452 0.071 30.975 0 46.427-0.071 5.080-0.423 10.231-2.752 14.958-2.963 6.068-8.114 8.82-14.676 8.89-6.491 0.071-11.783-2.399-14.958-8.396-3.175-5.856-3.528-12.348-3.598-18.698-0.212-14.182-0.141-28.364 0-42.476 0-2.752-0.564-3.81-3.528-3.669-4.727 0.212-9.525 0.212-14.253 0-2.47-0.071-3.175 0.635-3.175 3.175 0.071 15.734 0.071 31.539 0 47.273 0 2.963-0.423 5.927-1.129 8.82-2.258 9.314-8.396 14.323-17.216 14.111-8.396-0.212-14.394-5.645-16.158-14.958-0.706-3.881-1.129-7.902-1.129-11.924-0.141-14.323-0.071-28.717 0-43.040 0-2.47-0.494-3.528-3.246-3.387-5.010 0.212-10.090 0.141-15.099 0-1.976-0.071-2.54 0.706-2.54 2.611 0.071 27.941 0.071 55.952 0 83.893 0 1.905 0.564 2.681 2.54 2.611 4.657-0.141 9.314-0.141 13.97 0 2.117 0.071 2.893-0.706 2.752-2.752-0.141-1.27 0-2.54 0-3.81 0.282-0.212 0.564-0.423 0.847-0.564z" />
<glyph unicode="&#xe928;" d="M430.541 131.473c-1.199-0.847-1.764-1.199-2.187-1.623-16.369-15.664-45.086-14.605-61.173 4.657-18.557 22.226-14.958 62.091 17.145 75.99 14.535 6.28 28.929 5.010 41.982-4.798 0.635-0.494 1.341-0.917 2.54-1.693 0 1.482 0 2.47 0 3.457 0 10.231 0.071 20.532-0.071 30.763 0 2.258 0.564 3.175 2.963 3.034 4.939-0.141 9.878-0.141 14.817 0 2.47 0.071 3.175-0.706 3.175-3.175-0.071-25.471-0.071-50.872-0.071-76.343 0-12.206-0.071-24.413 0.071-36.619 0-2.399-0.635-3.316-3.175-3.246-4.586 0.212-9.102 0.141-13.688 0-1.834 0-2.54 0.635-2.399 2.47 0.141 2.187 0.071 4.304 0.071 7.126zM402.953 137.753c7.691 0.071 13.97 2.54 19.051 7.761 7.973 8.255 9.666 18.274 7.338 28.999-4.233 19.262-27.8 27.517-42.193 14.958-10.654-9.314-13.547-25.683-6.491-37.96 5.010-8.749 12.559-13.618 22.296-13.759z" />
<glyph unicode="&#xe929;" d="M539.059 131.685c-1.341-0.988-2.046-1.411-2.611-1.976-18.627-17.145-51.366-14.817-66.465 12.277-12.136 21.802-6.562 50.942 15.452 65.548 14.253 9.455 37.113 8.89 50.59-3.881 0.706-0.706 1.482-1.27 2.258-1.976 0.282 0.071 0.564 0.141 0.847 0.212 0 2.117 0.071 4.304 0 6.421-0.141 2.046 0.564 2.822 2.681 2.752 4.586-0.141 9.102-0.141 13.688 0 1.976 0.071 2.822-0.494 2.822-2.681-0.071-27.941-0.071-55.881 0-83.822 0-1.905-0.564-2.681-2.54-2.611-4.727 0.141-9.525 0.071-14.253 0-1.905-0.071-2.47 0.776-2.399 2.47 0 2.187-0.071 4.304-0.071 7.267zM484.659 166.329c0.282-2.399 0.282-4.868 0.917-7.197 2.611-10.442 8.82-17.922 19.403-20.603 10.513-2.681 19.756 0.282 26.812 8.679 6.068 7.197 7.55 15.664 6.209 24.907-2.399 16.087-17.922 26.247-33.515 22.155-10.019-2.54-20.25-13.547-19.827-27.941z" />
<glyph unicode="&#xe92a;" d="M214.636 202.242c0 2.187 0.071 4.445 0 6.632-0.071 1.552 0.564 2.187 2.117 2.187 4.939-0.071 9.878-0.071 14.817 0 2.611 0.071 2.187-1.693 2.187-3.246 0-22.155 0-44.381 0-66.536 0-5.574-0.071-11.148 0-16.793 0-1.905-0.564-2.681-2.54-2.611-4.657 0.141-9.314 0.141-13.97 0-2.187-0.071-2.752 0.776-2.681 2.822 0.141 2.046 0 4.022 0 6.774-1.129-0.776-1.834-1.199-2.399-1.693-22.649-20.391-60.679-11.995-70.769 22.367-6.209 21.097 1.341 42.123 18.204 54.4 14.253 10.372 37.678 10.301 51.789-2.681 0.776-0.706 1.623-1.341 2.47-2.046 0.282 0.212 0.564 0.282 0.776 0.423zM214.283 166.399c-0.282 2.399-0.423 4.798-0.847 7.197-3.669 19.544-27.165 28.505-42.334 16.087-9.031-7.479-11.783-17.357-10.16-28.787 2.328-16.087 17.851-26.388 33.515-22.155 11.783 3.175 19.615 14.253 19.827 27.659z" />
<glyph unicode="&#xe92b;" d="M67.594 204.994c2.893 1.976 5.010 3.669 7.409 4.939 16.793 9.102 44.098 4.586 49.602-23.99 0.776-4.092 1.129-8.326 1.129-12.489 0.141-16.158 0-32.245 0.071-48.402 0-2.47-0.706-3.246-3.175-3.175-4.939 0.141-9.878 0.141-14.817 0-2.399-0.071-3.034 0.776-2.963 3.034 0.071 14.535 0.141 29.070 0 43.604-0.071 4.233-0.494 8.608-1.482 12.7-2.328 9.384-8.396 14.111-17.287 13.97-8.82-0.141-15.17-5.362-17.145-14.676-0.776-3.528-1.199-7.197-1.199-10.795-0.141-14.888-0.141-29.846 0-44.733 0-2.47-0.706-3.246-3.175-3.175-4.727 0.141-9.525 0.212-14.253 0-2.681-0.141-3.457 0.706-3.457 3.387 0.071 34.009 0.071 68.017 0.071 102.097 0 3.669 0.071 7.267-0.071 10.936-0.071 2.117 0.494 3.034 2.822 2.963 5.151-0.141 10.231-0.141 15.382 0 2.117 0.071 2.681-0.776 2.681-2.752-0.071-9.949-0.071-19.968 0-29.916-0.141-0.917-0.141-1.905-0.141-3.528z" />
<glyph unicode="&#xe92c;" d="M295.142 119.055c-24.554-1.058-47.838 20.321-47.485 47.979 0.282 26.812 23.284 47.697 48.685 47.132 22.719-0.494 46.991-19.756 46.497-48.685-0.494-26.741-23.143-47.415-47.697-46.427zM321.742 166.47c-0.282 2.611-0.282 5.221-0.917 7.691-2.822 10.513-9.172 17.992-20.038 20.321-10.936 2.328-19.968-1.341-26.671-10.372-4.586-6.209-5.574-13.265-5.221-20.885 0.706-16.652 17.004-28.646 33.091-24.483 10.090 2.611 20.391 13.688 19.756 27.729z" />
<glyph unicode="&#xe92d;" d="M803.437 119.055c-24.483-1.129-48.544 20.673-47.485 49.461 0.917 24.836 22.79 46.356 48.967 45.651 22.155-0.635 46.286-19.192 46.215-47.908-0.071-28.364-23.778-48.191-47.697-47.203zM830.32 166.54c-0.494 3.105-0.706 6.28-1.623 9.243-3.175 9.807-9.525 16.652-19.897 18.768-10.513 2.117-19.333-1.341-25.824-9.878-5.151-6.703-6.35-14.323-5.574-22.649 1.482-16.087 17.216-27.306 32.809-23.355 10.795 2.752 20.391 14.041 20.109 27.87z" />
<glyph unicode="&#xe92e;" d="M742.123 182.557c-0.988-0.071-1.834-0.212-2.611-0.212-5.997 0-11.924-0.071-17.922 0.071-1.129 0-2.681 0.564-3.246 1.411-6.138 9.596-15.099 12.771-25.824 10.725-10.513-1.976-17.004-9.031-19.897-19.051-3.74-13.265 0.988-27.235 12.63-34.009 11.501-6.774 25.33-3.74 32.456 7.267 0.564 0.847 1.834 1.764 2.752 1.834 6.774 0.141 13.618 0.071 20.391 0.071 0.282 0 0.494-0.141 0.706-0.282-1.905-17.357-24.201-31.892-47.485-31.186-20.179 0.564-42.123 18.133-43.675 44.381-1.482 24.766 16.652 47.203 40.571 50.307 23.002 2.893 46.85-11.501 51.154-31.327z" />
<glyph unicode="&#xe92f;" d="M889.729 669.615c-17.145 0-31.469 14.111-31.257 31.327 0.212 17.357 13.406 31.257 31.327 31.257 18.063-0.071 31.257-13.9 31.257-31.327 0-18.627-15.099-31.257-31.327-31.257z" />
<glyph unicode="&#xe930;" d="M593.388 166.54c0-13.759-0.071-27.588 0.071-41.347 0-2.611-0.776-3.387-3.316-3.246-4.939 0.212-9.878 0.141-14.817 0-1.976-0.071-2.822 0.494-2.822 2.611 0.071 27.941 0.071 55.881 0 83.822 0 2.117 0.776 2.752 2.752 2.681 5.151-0.141 10.231-0.141 15.382 0 2.328 0.071 2.822-0.776 2.822-2.963-0.071-13.829-0.071-27.659-0.071-41.558z" />
<glyph unicode="&#xe931;" d="M593.952 230.183c0.071-6.138-5.010-11.36-11.007-11.36-6.138 0-11.148 5.080-11.219 11.219 0 6.068 4.868 11.078 10.936 11.219 6.209 0.071 11.289-4.939 11.289-11.078z" />
<glyph unicode="&#xe932;" d="M614.485 133.449c0.071 6.28 4.868 10.725 11.43 10.584 6.28-0.071 10.654-4.868 10.584-11.501-0.071-5.997-5.010-10.584-11.289-10.513-6.209 0.071-10.866 4.939-10.725 11.43z" />
<glyph unicode="&#xe933;" d="M504.415 194.34c15.664 4.092 31.116-6.138 33.515-22.155 1.341-9.172-0.141-17.639-6.209-24.907-7.056-8.467-16.299-11.36-26.812-8.679-10.584 2.681-16.793 10.090-19.403 20.603z" />
<glyph unicode="&#xe934;" d="M301.986 138.741c-16.087-4.163-32.386 7.832-33.091 24.483-0.353 7.55 0.635 14.605 5.221 20.885 6.703 9.102 15.734 12.7 26.671 10.372 10.866-2.328 17.216-9.807 20.038-20.321z" />
<glyph unicode="&#xe935;" glyph-name="r360" d="M452.344 965.18c257.394 36.337 497.712-138.857 559.027-391.805 58.351-240.954-79.8-500.252-308.265-580.899-88.832 141.679-177.452 283.147-271.505 433.293 118.536 38.101 202.923 114.585 209.697 250.338 6.632 133.354-54.611 227.689-188.953 289.074zM200.313 463.799c167.927-139.633 281.665-300.434 364.006-514.999-68.017 8.396-121.147 8.961-170.961 22.084-195.162 51.366-325.481 174.63-374.166 371.132-47.979 193.751 10.866 359.278 154.732 497.007 60.609 58.069 125.874 65.689 200.101 34.644 76.696-32.033 128.626-85.163 140.198-169.62 9.737-71.757-32.527-135.4-112.61-168.068-62.302-25.401-126.721-45.651-201.3-72.18z" />
<glyph unicode="&#xe936;" glyph-name="mingxiaodai" d="M149.4 304.2c-19.4 0-33.4 0-50.4 0 0 27.4-0.2 54.4 0.2 81.2 0 3.6 3 7.6 5.4 10.6 11 13 13.6 39.4 7.2 55.2-2.6 6.4-1.2 14.4-0.6 21.6 0.6 6.6 3.6 13 3.6 19.4 0.4 32-1.2 64 0.8 95.8 1.2 19-5 28.8-22.8 33-3.8 0.8-7.2 3.2-14 6.2 93.2 35.4 183.6 69.6 272.4 103.2 13.6-31 26.8-61.2 40.8-93-12.4 0-27 0-41.4 0-15 0-26.6-7.4-26.2-22 0.4-13.4 11.6-19.2 26.2-19.2 117 0.4 234 0.4 351 0.2 14.2 0 25.4 3.8 25.4 19 0 15.8-12.2 21.4-26.4 21.8s-28.6 0-41.2 0c13.6 30.6 27 61.4 41 93 88.2-33.4 179.2-67.8 273.8-103.6-49-18.8-94.6-36.6-140.4-53.8-98.6-37.2-197.4-74.6-296.2-111-8.4-3-20-2-28.4 1.2-122.8 45.8-245.4 92.4-368 138.8-2.4 0.8-4.8 1.6-9.6 3.2 0-42.4-6.2-84.2 2.2-122.8 5.4-24.2-9.2-43.4-2.6-65 1.4-4.4-1.2-11.4 1.2-13.8 31-28.8 7.2-65.2 17-99.2zM776.6 521.6c0-40.8 0-81.4 0-124-98.8-4.4-183.4-40.2-251.2-115.6-66.6 74.8-150.8 110.8-250.2 115.2 0 42 0 83.2 0 126.2 59.8-22.6 118.6-44.8 177.6-67.2 1.8-0.8 3.8-1.4 5.4-2.4 51.2-32.2 99.8-16.4 149.8 5.4 53.6 23.4 109.2 42.2 163.8 63 0.6 0.4 1.4 0 4.8-0.6zM525.6 638.6c-17.6 0-35.6 2.2-53-0.4-32.2-4.8-50.6 13.2-65.4 36.6-37.6 59.8-25.8 139.2 28.4 184.2 52.2 43.2 135 43.2 184.4-5.6 36.8-36.2 51.4-77.4 43.6-126.4-5-32.4-20-61.4-46.6-82.2-5.2-4.2-13.2-6.2-20.2-6.4-23.8-0.8-47.6-0.2-71.4-0.2 0.2 0 0.2 0.2 0.2 0.4zM587 745.2c0.4 4.6 0.6 9 1 13.6-8.2 4.6-17.8 7.8-24.2 14.2-37.6 37-37.4 37.2-75.8 0.2-21.8-21.2-21.8-21.2 1-43.6 37-36.4 36.8-36.2 74 1 6.6 6.2 16 9.8 24 14.6zM327.6 139.2c28.6 0 51.2 0 75.4 0 0-25.2 0-48.6 0-74.2-39.6 9-79.2 15.8-120.2-3.6 0 21.8 0 39.6 0 57.4-28 1.8-28 1.8-32.4 10.2 21.8 7.8 43.6 15.4 68.6 24.4-8.4 7.2-13.8 11.8-23.6 20 9.4 1.8 18.2 5.8 20.8 3.4 23.4-23.2 38-3.4 54.2 9.8 1.6 1.2 2.6 3 3.8 4.6 0.4 0.6 0.4 1.2 1.8 5-39.8 0.6-80.2 11.6-107.2-32.4-5.6 5.2-9 8.2-11.4 10.4 1.4 4.2 1.4 6 2.2 6.4 23.6 11.4 30 45 62.4 49.6-1-7.4-1.6-12-2.4-18 28.4 0 55.6 0 82.4 0 3-19.4 3-19.4-74.4-73zM384.4 123.6c-25.4 0-48.4-0.2-71.4 0.2-12 0.2-15.8-5.8-14.6-16.4 1-8.8-2.6-20.4 12.8-20.4 24.2 0 48.4 0 73.4 0-0.2 13-0.2 23.6-0.2 36.6zM494.6 140c-4.2 2-8.4 4-15.6 7.6 0-25 0.4-47.2-0.4-69.4-0.2-4.2-4.2-8.2-6.4-12.4-2.4 4-6.6 8-6.8 12.2-0.8 18.6-0.4 37.4-5 57.4-4.4-6.6-8.8-13.4-13.2-20-1.8 0.6-3.6 1.2-5.6 1.8 6.6 20 13.2 40 20.4 61.4-6.4 1.4-12.4 2.8-18.4 4.2-0.4 1.8-1.4 3.8-0.8 4.4 10.8 10.6 27.4 17.2 25 36.8 3.6-2.8 10-5.2 10.6-8.6 1.4-9 2.4-14.2 12-21.2 17-12.6-8-10.6-12.2-20.6 3-4.2 7.2-9.6 11.4-15.2 3.4-4.6 6.6-9.6 9.8-14.2-1.4-1.4-3.2-2.8-4.8-4.2zM552.4 120.4c14.4 0.6 9.4 31.2 33.2 16.2-6.2-10.4-11.8-20-19.4-32.8 12.2-7 24.4-14.2 36.8-21.6-5-23.6-11.8-17.4-50 8-17.6-4.2-29.8-33.4-55.4-12.4 16.2 9 30 16.8 44.2 24.6-7 12-12.2 21.2-17.6 30.6 9.2 9.8 9.2 9.8 28.2-12.6zM694.8 193.2c10.2 2.2 20.4 4.4 31.6 6.8-1.2 7.8-2.2 15-4.2 29.6 9-7 17-10.2 18-14.6 3.2-14.6 11.8-15.8 24-13.4 9.2 1.8 18.6 2.4 28 2.6 3.2 0 6.6-2.8 8.8-9-15.4-2-30.8-4-47-6.2 11.8-20.6 18-21.8 35-8.8 1.8 1.4 6 2 7.6 0.8 2-1.6 4.2-6.8 3.4-7.6-6.2-6-13.4-16.6-19.4-16-12.6 1.2-28.6 5.2-35.8 14-11.6 14.2-23.4 17-39.6 14-3-0.6-6.2 0.8-9.4 1.2-0.2 2.2-0.6 4.4-1 6.6zM663.4 99.6c0 16.6 0 30.8 0 46.2 41.2 0 81.4 0 123 0 0-14.6 0-29.2 0-45.4-28.6-0.2-9.8 24-19.8 34.2-26.6 0-54.8 0-82.6 0-11.8-8.4 10.8-35.2-20.6-35zM801.6 81.2c-3-13.8-9-17.8-20.6-11.2-5.2 2.8-11.4 4-17 6.2-20.6 8.2-40 16.8-61.8-0.6-9-7.2-24.2-7.6-36.8-8.6-5.6-0.4-11.8 5.4-17.8 8.2 0.8 1.6 1.4 3.2 2.2 4.8 11.8 2 24.4 2 35 6.6 11 4.8 20.2 14.2 30 21.6 5 3.8 9.8 7.6 10 7.6 10-8.8 15.2-16 21.8-18.4 17.4-6.4 35.8-10.8 55-16.2zM548.8 205.4c-1.4 5.6-2.8 11.2-4.2 16.8 17.4 3.6 19.8 1.2 17.4-16.2 12.4-9 34 9.6 44-16-34.2 0-65.2 0-96 0-1 11.6-1 11.6 38.8 15.4zM691.4 223.2c-3.4-24.4-6.2-44.2-9-64.8-14.4-2.4-14.4-2.4-16.4 22.4-5.6-1.4-10.8-2.6-21.4-5.2 3.6 8.8 4.6 17.8 8.4 19.4 15.6 6.4 20.2 32.4 38.4 28.2zM600.2 141.2c-12 9.2-20.2 14.4-26.4 21.2-2.4 2.6-0.2 9.2-0.2 14 9.4-5.8 19.4-10.8 27.8-17.6 2.2-2-0.6-9.6-1.2-17.6zM543.2 171.2c-27.4-29.2-27.4-29.2-40-16.4 14 3.6 18.2 26 40 16.4z" />
<glyph unicode="&#xe937;" glyph-name="shengbei" d="M961.4 461.2c-0.6-244.8-202.6-450-455.4-447.2-241.2 2.8-447.6 203-443.4 457.2 4 242 201.6 441.2 447.4 441.6 251.6 0.4 452-201.2 451.4-451.6zM465.8 485c0 1 0 2-0.2 2.8 17.6 6.8 35.6 12.8 52.8 20.4 17.8 7.6 36 15 52 25.6 13 8.8 21.8 9.2 35.4 0.6 32-20.2 77.2-15.8 104.4 8 33.8 29.4 45.4 71.4 30.4 109-19.6 49-69.6 74.2-118 58.2-53.6-17.6-77-72-62.2-117.4 2-6 1.8-16.8-1.8-19.4-13-10-28-17.6-44.8-27.6 0 63.2 0 120.6 0 179.8-15.8 0-31.6 0-48.2 0 0-66.2 0-131.2 0-201-78.4-17.4-157-34.8-235.4-52.2 6.6-26.6 16.6-34.8 43.2-30.8 20.4 3 40.4 8.2 62.4 12.8 0-82 1.2-163-0.8-243.8-0.4-18.4 3.8-21.2 19.8-21 75.6 0.6 151.4 0.2 227 0.2 30.8 0 61.4-0.4 92.2 0.6 5.4 0.2 15.2 7.4 15.2 11.4 0.2 78.6-0.6 157.2-1.2 235.8-0.2 15.4 0 30.8 0 47.6-74.4 0.4-148.4 0.4-222.2 0.4zM249.6 552.2c3.6-2.4 9.4-4.6 13-9 14.4-17.4 26.2-11.2 38 2.8 23.4 27.8 47.6 55 70.2 83.6 12 15.2 21 32.6 31.6 49.4-40 17.6-40 17.6-58-15.6-2.8-5.2-6-10.4-9.8-14.8-27.8-31.6-55.8-63.2-85-96.4zM645.6 316.2c-89.4 0-177.6 0-267 0 0 16 0 31.2 0 44.4 71.6 0 141.8 0 212 0 5.2 0 10.4 0 15.8 0 41.8 0.6 41.8 0.6 39.2-44.4zM378.2 231.2c0 15.8 0 29.8 0 43.8 72.2 0 143.6 0 215 0 5.2 0 10.4 0 15.6 0 41 0.2 41 0.2 36-43.8-88 0-176.4 0-266.6 0zM377.8 402.4c0 15 0 28.4 0 43.4 89 0 177.4 0 267.4 0 0-15 0-28.2 0-43.4-88.2 0-176.6 0-267.4 0zM652 673.2c28.2-0.8 53.8-27.8 53-55.8-0.8-28.2-28.2-55.2-55-54.2-28.2 1-52.8 27.4-52.2 55.8 0.8 29.2 26.8 55.2 54.2 54.2z" />
<glyph unicode="&#xe938;" glyph-name="mashangjinrong" d="M932 460.8c-0.8-235.6-186.4-422.4-422.6-419.8-235.4 2.6-418.6 181.8-417.4 422.8 1.2 243.4 199.6 421.2 430.2 416.8 219.8-4.4 411.4-186.2 409.8-419.8zM670.4 618.6c3.6-15.8 3.2-25.2 7.6-31 8.2-11.2 17.2-26 29-29.8 83-27.2 139.4-78.4 157.4-166.2 4.4-21.4 6-43.4 9.8-71.8 7.2 10.4 12.4 14.4 13 19.2 15 97.2 13 192.2-38.8 280.4-123.2 210.4-400 233.2-547.6 75.4-127.4-136.4-99.6-357.8 55.6-445.2 92-51.8 205.8-39.8 267.6 30 33.6 37.8 48.6 81.8 33.6 136.2-24.2-53.8-68.6-54.8-115.8-54-13.4 0.2-26.8-15-40.4-22.8-7.6-4.4-17.6-13.4-23.2-11.2-25.6 10-32.6 45.4-14.2 66.2 33 37 66 73.8 99.6 110.4 33.6 36.4 67.6 72.4 106.8 114.2z" />
<glyph unicode="&#xe939;" glyph-name="faxindai" d="M39.2 418.8c15.4 1 30.8 2 46.2 2.8 33.6 1.8 67.4 3 101 5.4 5 0.4 11.8 4.2 13.8 8.4 17.2 34.6 42.6 62 72 86.2 3.6 3 7.4 9.2 7 13.4-7.6 70.6 11.4 131.8 62.4 182.2 0.8 0.8 1.4 2.2 1.6 2.4-7.2 13.8-15.8 26.6-20.2 40.8-3.2 10-3 22.8 0.2 32.6 6.4 18.8 32 27.2 51.6 16.6 15-8 28.8-18.8 42.2-29.4 6-4.8 10.8-7.6 18.4-4.6 39 15.4 80 18.2 121.2 14.8 20-1.6 40-7 59.2-13 12-3.6 19.8-4.2 29.4 5.8 17.2 18 37.6 31.8 65 29 13-1.4 23.8-8.8 27-21.8 5.4-22.4-2-42.2-15.6-59.4-7.2-9.2-6-14.4 1.8-22.6 44.6-48 61-105.4 54.2-169.8-0.8-8 0.8-12.6 7-17.6 30-23.6 55-51.4 72.2-86 2.2-4.4 10-8 15.4-8.2 40.2-2.4 80.4-4 120.6-6 8.4-0.4 16.8-1.8 25.2-2.8 0.2-1.2 0.2-2.4 0.4-3.6-3.8-0.8-7.4-2-11.2-2.2-59.8-2.2-119.4-5-179.2-6-156-2.2-312-4.4-468-4.8-71.8-0.2-143.8 3.4-215.6 5.8-32 1-64 3.2-96 5-3.2 0.2-6.2 1.4-9.4 2 0 1.6 0.2 3.2 0.2 4.6zM751.4 544c0 21.2 2.6 38.8-0.4 55.4-8 44-30.4 80.6-64.6 109.4-10 8.4-7.4 13 0.2 21.6 9.6 10.6 17.6 23.2 24.6 35.8 2.6 4.6 1.8 16.4-0.6 17.4-6 2.4-14.4 2.4-20.4 0-17.8-7-31.4-19.8-41.6-36-4.2-6.6-8-7.8-15.8-4.2-29.2 13.4-59.8 21.4-92.2 22.4-39.6 1.2-77.4-4.6-113.4-21.2-7.6-3.4-12.2-2-17.4 5-6.4 8.6-13.6 17.2-22.2 23.4-8.8 6.2-19.6 10.4-30.2 13.6-7.6 2.4-13.8-2.8-11-10.8 4.2-12 9.6-23.8 16.4-34.4 4.8-7.8 12.6-13.8 20-21.6-54.6-45.4-86-100-77-175.8 70.8 40.6 145 57 223 57 77.6-0.2 151.8-16.6 222.6-57zM218.4 430.6c0.8-1.2 1.8-2.6 2.6-3.8 205.2 7.8 410.6 7.4 617.4 2.8-12.2 19.8-24 38.4-39.4 53.8-67.2 67-152.4 92.8-244.2 99.4-60.4 4.4-119.8-4.8-177-25.4-54.4-19.6-102-49.2-138.4-94.8-8.2-10-14.2-21.4-21-32zM398.2 652c-2.6 14.2 9.8 26 25 27s27-11 27-26.6c0-16.2-10.6-27.4-26-27.4-16.2 0-26 9.8-26 27zM658.6 651.4c-0.2-16.8-10-26.6-26.6-26.4-15.2 0.2-25.8 11.6-25.6 28 0.2 14.8 11.6 26.6 26.2 26 14.8-0.6 28.6-11.6 26-27.6zM623.4 458c-0.6 25 19.6 57.8 38.2 65.8 10.4 4.6 20 1.2 27.6-5.6 15.8-13.6 24.2-31.6 25.2-53.6-5.6 8.6-11.2 17.2-16.8 25.8-2.6 4-5.2 8-8.4 11.6-12 13.2-24.8 13.8-36.4 0.2-8.2-9.8-14.6-21.2-21.8-32-1.8-2.8-3.6-6-7.6-12.2zM433 458c-8.8 13.2-15.4 24.2-23 34.6-16.2 22.2-30.6 22-46.4-0.8-7.8-11.2-14.6-22.8-23.2-33.4 3.6 23.4 10.8 45.2 32.2 57.8 6.8 4 17.6 4.2 25.6 2.4 14.6-3.2 34.6-36.4 34.8-60.6zM700 462.2c-6.2 7.8-10.2 13.4-14.6 18.4-11.6 12.6-17.8 12.6-29.4-0.4-5-5.6-9.6-11.4-15.6-18.4-1.2 19.6 15.2 41.2 29.8 41.8 13.6 0.4 29.8-20 29.8-41.4zM358.8 459c-1.2 21 13.4 40 27.4 40.4 13.6 0.4 28.2-16.8 32.2-41.6-5.6 6-9.4 9.4-12.4 13.4-14.4 18.8-23.8 18.8-38.2-0.2-3.2-4-6-8-9-12zM167.8 136.6c11 38.8 22 77.6 33 116.2 4.8 17.2 9.8 34.2 14.4 51.4 1 4 2.4 10.6 0.4 12.2-3 2.6-8.8 2.6-13.4 2.2-9.4-0.8-18.8-2.4-29.6-4 0 19.4 0 36.8 0 55.2 12.4 0 24.4 0 38 0 0.6-9 1.4-18.2 2.2-27.4 2-0.6 4-1.2 5.8-1.8 3 9.2 6 18.4 9.4 29.4 14.4 0 31 0 48.2 0-0.8-8.8-1.6-17.4-2.6-26.6 42 0 82.6 0 125.2 0-0.6-9.6-1.4-19.4-2-30.2-41.6 10.6-81 5.2-120.2 5.8-4.8 0-9.8-6.2-14.8-9.4 0.8-1.4 1.6-2.6 2.4-4 43.8 0 87.6 0 133.8 0-11-25-21.8-48.2-31.2-72.2-2.6-6.8-2-16 0.4-23 9-26.2 19.4-51.8 28.8-76.2-13 2-26.8 2.4-39.2 6.8-5.6 2-9.8 10.8-12.8 17.4-5.8 13.4-10.4 27.2-17.4 45.8-9.4-18.4-17.6-31.6-22.8-45.6-4.8-13-10.6-19.2-25.6-19-13 0.2-26.2-4.4-41.6-7.4 16.8 29 33.8 58.4 51 88.2-8 15.6-16.6 31.8-27.2 52.4 16.8-1.4 32.6 1.6 42.6-4.6 9.8-6 14-21.4 22.8-36.6 8.4 17.6 15.6 32.6 23.8 49.8-32.2 0-61.6 0-92.4 0-10-42.8-20.2-86.8-31.2-130.4-1.2-4.4-8.8-10.6-13-10.2-17.8 1.6-32.8-2.2-45.2-15.2 0 3.6 0 7.4 0 11zM866.4 155c11.4-4.2 22.8-8.4 34.2-12.8-0.4-1.8-0.8-3.4-1.2-5.2-22 3.4-46.4 2.2-65.6 11.4-19.8 9.6-34.8 29.6-53.6 46.4-33.4-27.8-61.2-72.6-118.8-50.6 9.6 4 18.2 7.6 31.6 13-10 1-15.4 1.4-22 2 0 37.8 0 76 0 115.4 70 0 140 0 210.2 0 0.2 1.2 0.2 2.4 0.4 3.6-8.4 1.6-17.4 5.8-25.4 4.4-19.6-3.4-31 6.8-39.2 21.2-8.6 14.8-19.6 21.8-36.8 19.8-9-1-18.2-0.2-27.4-0.2-21.8 0-24 3.6-17.6 27.2 13.8 0 27.8 0 43.8 0-2.4 5.8-3.8 9.4-5.4 13.2 16.2 0 31.2 0.6 46-0.4 5.2-0.4 11.2-3.4 14.6-7.2 10.2-11 12.8-10.4 19.6 3.4 1.8 3.6 8.2 6.4 13 7.2 7.8 1.2 15.8 0.4 23.6 0.4 9.2-35.8 0.4-48.4-32.4-40 6.6-9.4 10.6-17 16.2-22.8 13.6-14.2 20.2-30.4 19.4-50.4-1-22.6-0.2-45.2-0.2-67.6-0.4-20.6-5.8-26.4-27-31.4zM716.2 187.8c14.4 1.8 16.8 16.6 24.8 25.6 6.4 7.4 11.8 19.4 19.6 21.2 14.6 3.4 30.6 1 47.2 1-5.2-8.2-8.8-14.2-15.4-24.6 28.6 12.2 34.2-11 48-26.8 0 24 0 42.8 0 61.6-41.4 0-81.6 0-124.2 0 0-19 0-37 0-58zM546.6 145.2c0.8 16.8 2 33.6 2.2 50.6 0.4 39.6 0.2 79 0.2 119.4 32.4 0 63.2 0 94.2 0 0.4-22.2-4.6-26.4-28.8-24.6-27 2-27 2-23.6-28.8 19.2 0 38.4 0 57.8 0-13.2-44.2-8.4-87.8-5.2-130-13 3.2-25.4 6-37.4 9.8-2.2 0.6-3.8 6.4-3.8 9.8-0.4 28.4-0.2 57-0.2 86.8-8.4 3-13.2 1.2-13-10.2 0.4-19 0.2-37.8 0.2-56.8 0-26.8-3-30-29.8-31.2-3.6-5.4-7-11-10.6-16.6-1.2 0.4-2.6 1-3.8 1.4 0.6 7 1.2 13.8 1.8 20.8l-0.2-0.4zM499.8 240c5.4-32 29.6-12.2 42.8-21.4-0.6-3.8-1.4-9.2-2.4-15.8-5.2 0-10 0-14.8 0-25.4-0.2-25.4-0.2-24.4-25.6 1.4-36.6-0.2-38.2-39.6-36 0 19.6 0 39.4 0 61.8-14.2-1.6-26.4-2.8-39.8-4.4 0 8.8 0 16.4 0 26 12.4-1.4 24.6-2.6 38-4.2 0.4 6.6 0.6 11.8 0.8 17.8-12.8 0-24.6 0-40.4 0 1.8 12.6 3.6 24.8 5.4 38.8 13.8-6.2 32.2 9.4 41.2-14 1.4-3.4 26.4-3.8 28 0 9.4 20.6 26 9.6 38.6 12.8 3-11.8 6-22.6 9.4-36-14.2 0.2-26.6 0.2-42.8 0.2zM419.8 349.4c19.6 22.8 46.8 25.6 62.8 16 24.2-14.4 46.8-5.4 69.6-8.8 6.8-1 16-4.6 20.4 8.4 2.4 7.2 45.6 0.6 53.8-5.6 4.2-3.2 10.8-3.6 16.4-5.2 2.4-22.8-7.2-32.8-29.8-31-33.8 2.4-67.4 5.4-101.2 7-8.2 0.4-18 4.8-24.4-8.4-2-4.2-18.2-3.2-27.6-1.8-12.2 1.8-25 4.6-35.6 10.6-4.2 2.4-3.4 14.2-4.4 18.8zM669.8 355.2c18.4 3.2 35.6 6.2 53.6 9.2 0-28.6 0-55 0-80.8-12.6-1.2-24-3-35.4-3.2-3.6 0-10 3.8-10.4 6.6-3.2 22.4-5.2 44.8-7.8 68.2zM422 282.4c0 7.2 0 14 0 22 5.2 0.2 10.6 0.2 16 0.8 9 1.2 19.6-4.6 25.4 9.2 2.6 6.2 31.6-0.4 38.4-5 5.2-3.4 13-4.4 19.6-4 15.6 0.6 29.2 0.6 19.4-23-37.6 0-76.8 0-118.8 0zM450.8 190.4c1-11.4 1.8-21 2.6-30.8 1-11.4 0-20.8-15.6-19.8-4.8 0.2-9.8-4-17.2-7.2 0 17.4-0.4 35.4 0.4 53.4 0.2 2.8 6.2 7.2 9.6 7.4 7 0.2 14.2-2 20.2-3zM546.8 145.4c-10.8-2.2-21.6-4.4-34.8-7.2 0 19.6 0 35.6 0 52.4 6.6 0 14.8 0 22.8 0 3.8-15.4 7.8-30.6 11.6-45.6 0.2 0.2 0.4 0.4 0.4 0.4zM318 370.6c27.8 0 52.6 0 78.4 0-0.8-5.8-1.6-11.4-2.4-17.4-23.6 0-46.4 0-70.4 0-1.8 5.4-3.6 10.8-5.6 17.4z" />
<glyph unicode="&#xe93a;" glyph-name="paipaidai" d="M635.8 630.2c-8.8-13.8-15.2-24-24-38 13.2 0 23.2 0.6 33-0.2 24.2-1.6 35.6-12.6 33.6-36.8-5.2-62-12-124-18.4-187.4-64 0-126.6 0-191.4 0 3 29.4 5.8 58.4 8.6 87.2-29 5-30.8 3.8-34.6-23.2-1-7.4-2.2-15-3-22.4-2.8-24-16.8-41.2-41-44.4-18-2.4-36.6-0.4-57.2-0.4 1.2 7.2 2.2 13.6 3.2 19.8 33.8 7.2 38 14.2 31 50.8-7.8-2.2-15.6-4.4-24.6-7-5.2 17-0.4 28 16.6 32.6 13.4 3.6 17.8 12.4 18.6 25.6 1.4 24.4 4 49 6.2 75-10.2 1.2-18.6 2-29.2 3.2 0.8 7.6 1.8 14.6 2.6 22.8 9.6 0.6 18.2 1.4 29.4 2.2 1.8 12.2 3.4 24.8 5.4 39 19.4 0 38.8 0 59.8 0 0-11.8 0-24.6 0-38.4 6.4-1.2 13-2.2 19.6-3.4 1.4-12.8 3.8-24.6-15.2-24.2-3 0-8.4-6.6-9-10.6-3.2-20-5-40.2-7.4-60.6 31.2-0.6 34 1.8 36.2 28.6 1.6 18.4 4 36.8 4.8 55.2 0.6 12.6 5 19.4 18.8 17.2 26.2-4.4 46.8 2 58.2 28.6 1.8 4.2 9.2 8.4 14.4 8.8 16.8 1 33.8 0.4 55 0.4zM604.8 391.4c5.6 54 11.4 106.4 15.8 158.8 0.4 5.6-6.4 16.6-10.4 17-20.2 1.8-40.8 0.8-62.8 0.8-2-21.6-3.8-41-5.6-61.6 22.2 1 41.2 2 61.2 2.8-1.6-16.8-3-29.6-4.4-43.8-17.4 0-33 0.6-48.6-0.4-4.8-0.4-13-4.6-13.6-8.2-3.2-21.4-4.6-43-6.6-65.6 25.8 0.2 49 0.2 75 0.2zM301.4 630.2c-8.4-13.6-14.8-23.8-23.4-37.8 11.6 0 20.6 0.4 29.6 0 27.6-1.6 39.2-12.8 37-40.2-3.8-46.4-9.4-92.6-14.2-139-1.6-14.8-3-29.8-4.6-45.6-63.6 0-125.8 0-191.2 0 2.8 29.8 5.8 59.4 8.6 88.8-30.4 2.6-30.4 2.6-34.6-24.4-1-6.8-1.8-13.6-2.6-20.4-3-26.6-17-42.8-43.4-46.8-14.8-2.2-30-1.6-45.2-1.2-3.2 0.2-9.2 5.6-8.8 8 0.6 5.4 3 13.2 7 14.8 29 12.4 29.2 12 28 48.8-9-2.2-17.8-4.4-26.6-6.6-5.2 17.2 0 27.4 17.4 33.4 6.6 2.4 14.6 11 15.8 17.8 4.2 26.2 5.8 52.8 8.6 81.2-11 1.4-20.2 2.6-30.4 4 1.2 7.6 2.2 14.2 3.6 21.8 9.8 1 19.2 1.8 30 3 1.6 12.4 3.2 24.6 5 38.4 19.2 0 38.6 0 59.4 0 0-12.2 0-24.8 0-38.6 7-1 12.8-2 19.2-2.8 4.4-18.2-1-27.2-22.8-23.8-2.8-24.6-5.4-47.8-8.2-71.2 29.4-2.6 34 1 36.4 27.6 1.8 19 3.8 38.2 4.8 57.4 0.6 11.4 5 16.4 16.4 15.4 5.4-0.4 11 0.8 16.4 0 17.6-2.4 30.6 2.8 37.8 20.2 6 14.4 16.8 20 32.6 18.2 12.4-1.6 25.6-0.4 42.4-0.4zM270.8 391.6c5.6 54 11.4 107.6 16 161.2 0.4 4.6-7.2 14-11.6 14.2-20.2 1.6-40.6 0.6-62 0.6-1.8-21.6-3.4-40.8-5-60.4 22.2 0 40.8 0 60.2 0-1.2-14.4-2.4-27.2-3.6-41.8-17.2 0-33 0.8-48.4-0.4-5.2-0.4-13.6-5.6-14.2-9.4-3.2-20.8-4.4-41.8-6.4-64 25.6 0 49.2 0 75 0zM923.8 426.2c4 11.2 7.4 19.4 9.6 27.6 5.8 21.4-1 32.6-23 36.8-41 7.8-80.2-1.2-118.4-15.4-4.6-1.8-8.4-9.6-9.8-15.2-2.6-10.4-3-21.4-4.4-33.2-19.8 0-38 0-59.2 0 3 27.8 5.8 54.6 8.8 84.2 21.6-5 45 9.4 65-14.4 44.2 17 93.8 24 145 18.2 9.4-1 19-2.2 28.2-4.8 42.2-11.8 51.4-46 21.2-77.8-2.6-2.8-6.8-5.6-10.2-5.8-16.6-0.6-33.4-0.2-52.8-0.2zM803.4 603.6c17.6 0 34 0 51 0 0 9.2 0 16.4 0 25.2 17.8 0 35.2 0 52.6 0 7.8-28 10.2-29.2 46.6-22.8 1.4 7 2.6 14.2 4.2 22.8 17.2 0 34 0 49.6 0 3.6-16.2 7-31.8 11-50.6-32 0-60.4 0-93.2 0 23.8-31.6 54.8-32.6 87-35.8-1-9.4-1.8-17.8-3-27.8-55.4 0.6-107 5.6-141.4 55.8-3 4.4-11.2 6.8-17.2 7.2-15.6 1-31.2 0.4-48.6 0.4 0.6 9.4 1 16.6 1.4 25.6zM892.4 479.2c-9.8-41.8-7.2-49.6 29.4-64.2 27-10.8 56-16.2 87.2-24.8-0.2-4.8-0.6-13.2-1-23.6-48.6-1.2-93.8 7.4-135 31-15 8.6-24.4 9.4-39.6-0.4-37.8-24.4-81-31-127-31 2 15.8 3.6 29.8 5.2 42.6 24.8 3.6 47.8 5.8 70.6 10.2 28.8 5.6 49.8 22.8 69.4 44.4 7.8 8.8 24.8 10 40.8 15.8zM343.8 321c2.8 13.8 2.2 30.6 21.4 25.8 6.2-1.6 15.4-9.6 15.4-14.6 0.4-30.4-2.4-60.8-2.2-91.2 0.2-18-5.6-24.8-23.8-22.6-12 1.4-24.4 0.8-36.4-0.8-20-2.6-36.6 5-42 24-4 14-6 29.4-5 44 1.8 27.2 24.8 43.4 52 39.2 6.4-1 12.8-2.4 20.6-3.8zM323.8 295.8c-17.6 3.6-23-7.8-24-23.2-1.2-18 9.2-31.2 23.8-30.6 16.4 0.6 24.8 10.2 24.4 26-0.4 14.6-1.6 30-24.2 27.8zM52.8 224.6c0-8.6 0-17.8 0-27.8-8.8-2-16.4-3.8-27.8-6.4-5.4 43.4-1.2 86.8-3 133.6 26.4 0 52 2.6 76.8-0.8 23.4-3.2 28.4-25.6 31.2-45.4 4.6-33.6-10-56-42.8-62.4-10-1.8-22 5.6-34.4 9.2zM52.2 272.2c-0.4-18.4 7.8-29.2 22.6-29.8 14.6-0.6 26 10.6 24 27.6-1.4 12.8-3 28.6-21 30.2-14.6 1.2-25.2-11.2-25.6-28zM148.6 325.2c11.6-2.4 19.6-4.4 27.8-5.8 3.6-0.6 8-1.6 10.6-0.2 20.8 11.8 39.8 7.8 55.8-7.6 16.2-15.2 19.4-48.2 9-69-9.6-19.2-27.6-27.6-53.2-24.2-5.2 0.6-10.4 2.2-17.2 3.8-2-9-3.8-17.4-5.8-25.6-26.6-5.4-27.8-4-27.4 22 0.8 33.8 0.4 67.6 0.4 106.6zM225 267.4c0.2 20.2-9 32.6-22.8 33.2-11.8 0.4-24.6-14.6-25.2-29.6s11.6-28.8 25.4-28.8c19.2-0.4 20 14.2 22.6 25.2zM730 556.2c-10 1-17.8 1.6-30 2.8 16.4 24.4 30.2 46.6 46.2 67.4 3.2 4.2 13.8 3.4 21 3.6 13 0.6 25.8 0.2 44 0.2-26.6-30.8-22.2-66.4-27.2-99.8-0.6-4-7.2-9.8-11.6-10.2-14-1.4-28.4-0.4-44-0.4 0.4 14 1 25 1.6 36.4zM811.2 272.2c0.6-31.4-18.8-56.2-45.2-57.8-31-2-57.8 23-58.6 54.6-0.8 34.2 17.6 54.6 48 56.6 41.2 3 60-18.6 55.8-53.4zM728.2 270.2c0-20 14.8-36.2 32.6-35.6 18.4 0.6 32.8 16.8 33 37 0 23.4-9.8 33.2-33.8 33.2-24.4-0.2-32-8.4-31.8-34.6zM691.6 234.6c-2.8-4.8-4.4-11.8-8.8-14.2-28.2-15.4-65.6 2.6-71.4 34.2-4 21.8-2.6 43.6 15 58.8 19.6 17 43.4 14.4 67.4 7.8-1.6-6.2-2.8-11-3.8-15.6-37.8 6.2-67.4 1.2-57.8-46.6 4.8-24 21.6-28.8 59.4-24.4zM596.6 227.4c-7.6-5.8-13.2-13.2-17.2-12.4-4.8 0.8-11 8.8-11.2 13.8-0.2 4.2 7.6 12.4 11.6 12.2 4.8 0 9.4-7.2 16.8-13.6zM903.6 209.2c0 24 1 47.6-0.4 71-0.8 14-4 30.4-20.8 32.8-15.4 2.2-28.2-12.2-29-30.6-1-21.4-1-42.8-2.6-64.2-0.2-3.8-8-10.8-9.4-10-5.4 2.8-14 8.2-14 12.6-0.2 33 1.4 66.2 2.4 99.2 0.2 3.6-0.6 7-1.2 11.8 3.4 0.4 7.6 2.2 11 1 12-4 21.4-10 35.8-0.2 13 8.6 28.2-4 42.8-10 10.2-4.2 26.8 12.8 39.6 11.2 33-4 35.6-9.6 35.6-45.2 0-26 0-52.2 0-78.8-14.8-5.8-21 1.2-19.8 14.4 2 20.2-6.8 40.2 2.6 60.8 5.6 12.6-7 28.2-20.4 29.8-13.6 1.6-31.6-11.8-32-24.8-0.6-21.8-0.6-43.4-0.2-65.2 0.2-15.6-5.6-21-20-15.6zM495.6 213.6c-8.6 2.4-17.2 5.8-26 6.6-7.2 0.8-15.2-0.4-22.2-2.8-25.6-8.6-45.6-1-51.2 20.4-5 18.8 3.2 33.4 21.8 38.2 13.8 3.6 27.8 6.6 44.6 10.4-2.2 4.6-3.8 12.2-6.6 12.8-6.8 1.4-15.6 1.6-21.2-1.8-12-7.2-22.8-11.4-35.6-3.4 12.6 33.6 62.2 46 89.2 22.6 3.8-3.2 6.8-9.8 6.8-14.8 0.8-28 0.4-55.8 0.4-88.2zM466.4 254.2c-13.4 9.4-25.8 10.4-36.4-1.2-2.2-2.4-1.8-10.6 0.4-12.8 10.2-9.6 21.4-5.2 36 14zM524.2 211.8c0 37 0 66.8 0 97 7.8 1.8 16.4 3.8 27.8 6.6 0-30.8 1-61-1.2-90.8-0.2-4.4-15.4-7.6-26.6-12.8zM551.6 327.2c-28.4-9-32.6-5.2-27.8 23.6 25.6 4.4 25.6 4.4 27.8-23.6z" />
<glyph unicode="&#xe93b;" glyph-name="xinyongqianbao" d="M628.8 847c-53.2-49.8-105.2-98.6-157.2-147.4-21.4-20-42.6-40.2-64.2-60-23.8-22-48.4-24-67.4-5.8-18.4 17.6-17.8 41.6 1.6 66 2 2.4 3.6 5.2 8.2 11.4-38.6 0-73.6 0.8-108.6-0.8-6.8-0.4-14.8-9.4-19.4-16.2-15.8-22.8-16.6-47.4-4-71.6 12.4-23.8 32.6-36.2 59.6-36.2 77.8-0.2 155.6-0.2 233.4-0.2 91.4 0 183 0.2 274.4 0 83.2-0.2 140.2-56.8 140.6-139.8 0.2-20.4-1-41 0.4-61.4 1-16.2-4.4-21-20.6-20.8-102.4 0.6-204.8 0.4-307.2 0.4-8 0-16.2 0-26 0 0-62.8 0-123.8 0-187.4 7.6-0.4 15.4-1.2 23.2-1.2 102.4 0 204.8-0.6 307.2 0.4 19.6 0.2 24.8-6.2 23.4-24.4-3.2-38.4 6.4-78-10.4-115.2-23-51.4-62.2-81.8-118.6-82-192.4-1-385-0.8-577.4 0-66.6 0.2-123.4 59-123.6 127.8-0.8 196.6-0.8 393.2 0.2 589.8 0.4 70.4 58.6 126 129.2 126.4 64.8 0.4 129.6 0.4 194.6-0.2 14.6-0.2 25.6 3.6 36.6 13.8 44.2 41.4 89.2 82 134 122.8 30.2 27.6 48.4 27.6 77-0.8 73.8-73.4 146.8-147.8 221.4-220.2 22.4-21.6 19.2-53.2 1.2-70.8-19-18.6-45-16.2-66.6 6-59.4 61-118.6 122-178 182.8-6 4.8-11.6 9.8-17 14.8zM703.8 328.6c36 0 62.6-25.6 62.4-60.8-0.2-34.8-27.4-61.4-62.6-61.2-33.8 0.4-61 27-61.6 60.4-0.4 35 26.2 61.6 61.8 61.6z" />
<glyph unicode="&#xe93c;" glyph-name="suixindai" d="M517.2 708c38.6 0 77.4 1 116-0.6 11.4-0.4 25.4-5.4 33.4-13.2 80.8-79.2 150.4-167 201.4-268.8 37.8-75.6 61-153.8 52.4-240.2-9.4-94.6-62.6-163-155.6-187.8-40.8-10.8-83.4-18-125.4-21.4-97-8.2-194.4-6.6-291.2 4.2-53.6 6-105.6 20.8-150.4 53.6-43.2 31.6-66.6 74.8-76 126.6-21.2 115.4 18.8 216.2 74.8 313 47 81 106.4 152.6 171.8 219.4 10.6 10.8 21.4 16 36.8 15.6 37.2-1.2 74.6-0.4 112-0.4zM463 341.8c-15.2 0-26.2 0-37.2 0-44.6 0-46.2-1.6-45-45.8 0-2 0.2-4 0.2-6 0.2-13.2 7.2-19.4 20-19.6 16-0.2 32-0.6 48 0 12.4 0.6 16.2-5 16-16.6-0.2-12-6.4-14.4-16.6-14-16 0.4-32.2 1.4-47.8-0.6-6.8-1-16.6-7.8-18.4-14-12.2-40.4 0.6-56.4 42.6-56.4 2 0 4 0 6 0 34 0 34 0 34.2-34.4 0-2.6 0-5.4 0-8 0.8-16.6 8-25.6 26.2-24.6 18 1 36 0.8 54 0 18.4-0.8 27.8 6 26 25.6-0.8 8 0.6 16-0.2 24-1.6 14.6 5.2 18.8 18.6 17.8 12.6-0.8 25.4-0.4 38-0.2 24.4 0.2 29.4 6.4 29.4 36.2 0 28.6-4.6 34.2-28.6 34.2-10.6 0-21.4 0-32 0-27 0-28.2 1.6-22.8 28.8 1.8 0.6 3.6 1.8 5.6 1.8 16.6 0.2 33.2 0.2 50 0.6 24 0.6 28 5.8 27.8 35.2-0.2 27.8-6 35.2-28.4 35.6-16.2 0.2-32.6 0-53.2 0 6.2 11 9.8 17.8 14 24.2 25.4 39.8 51 79.6 76.6 119.2 32.2 49.8 31.4 43-16.2 69.4s-39.8 38.2-72.4-19.8c-18.4-32.8-37.4-65.2-57.6-100.4-6 9.4-10 15.2-13.6 21.4-20.2 35.2-40.2 70.4-60.4 105.6-7 12.4-14.6 19.8-30 9.4-16.6-11-34.4-20-52.2-29.4-15-8-18-17.6-8.2-32.2 17.8-26.6 34.8-53.6 52-80.4 17.4-27 35.2-54.8 55.6-86.6zM518.2 745.4c-40 0-79.8-0.6-119.8 0.6-8.8 0.2-20.2 4.4-25.8 11-35 39.8-54.4 86.2-53.8 139.8 0 8.2 2.4 17.2 6 24.8 11.4 24.6 33.4 29 53 10.4 10.6-10 19-22.2 29.4-32.4 15.6-15.4 27-14.8 43 0.2 13 12.2 24.6 26.4 39.4 35.8 26 16.8 56.4 10.4 77.4-12.8 41.6-46 41.4-46 83 1.4 10.2 11.6 21 23.8 38.6 19 17.2-4.6 25.8-18.2 29.2-34.8 1.8-9 3.6-18.6 2.4-27.6-6-44.8-19.4-87.2-51.6-120.4-7.8-8-21.4-14-32.6-14.4-39.2-1.8-78.6-0.6-117.8-0.6 0-0.2 0 0 0 0z" />
<glyph unicode="&#xe93d;" glyph-name="shanyin" d="M705 95.8c28.8 27.8 53.8 51.2 77.6 75.6 6.2 6.4 12.2 16.8 12.2 25.4 0.4 155.2-0.2 310.6-0.4 465.8 0 3.4-0.6 6.8-1.2 12.4-162.2 0-323.4 0-484.6 0-1 1.8-2.2 3.6-3.2 5.4 28.4 27.6 56.6 55.6 85.4 82.6 3.4 3.2 10.8 2.6 16.4 2.6 168.8 0.2 337.8 0.2 506.6 0 4.8 0 9.8-0.8 15.8-1.2 0-222.8 0-445 0-668.6-73 0-145 0-224.6 0zM124.8 96.2c0 223 0 444.6 0 667.4 44.6 0 88.6 0 133.6 0 0-222.6 0-444 0-667.4-44.6 0-87.8 0-133.6 0zM336.4 160c30 151.8 59.2 299.4 88.6 448.2 45.6 0 90.4 0 137.4 0-10.6-52.6-20.8-103.6-31.2-154.6-18.4-91-37.2-182-54.8-273.2-3-15.8-8.6-21.4-24.8-20.8-37.2 1.2-74.2 0.4-115.2 0.4zM719.8 159.6c-30.8 0-57.2-0.4-83.6 0.4-4.2 0.2-10.6 5-12 9-29.4 85.8-58.2 171.6-88.4 261.4 30.8 0 58.4 0.4 86-0.4 3.6 0 9.2-4.4 10.4-8 29-85.6 57.4-171.8 87.6-262.4z" />
<glyph unicode="&#xe93e;" glyph-name="huaqi" d="M361.8 483.6c-96.2 68.8-149 68.2-203.2 11.2-47.6-50.2-51-130.8-8.2-187.8 37.6-50.2 110.2-50.2 197.8 1.4 12.6-14.2 25.6-29 38.4-43.6-97-97.2-232.2-65.4-288.4-1-80 91.2-70.4 223 22.4 296 72.2 57 165.6 57 239.6 1 10.8-8 1.6-42.8 1.6-77.2zM835 279.2c-3.8-53-26.2-79.8-74.2-76.8-54.6 3.6-88.8 34-92.4 89.2-3.6 53.6-1.4 107.4-1.6 161.2-0.2 22.4 0 44.8 0 68.8-37 9.8-87.2 5.6-59 69 15.2 2.6 33 5.6 54.2 9.2 2.6 49.4 3.8 100.8 74.4 108 0-34.4 0-68.6 0-106.4 28-4 51.8-7.2 77-10.8 10.8-35.4 14-64.2-36.2-61-34.6 2.2-41.4-17.2-40.6-46.4 1.2-47.6-0.2-95.2 0.2-142.6 0.4-77 18.6-89.2 98.2-61.4zM1016.2 657.6c-36.4 15.4-77.6 24.4-108.4 47.2-117.6 87.4-274.2 86.6-402-4.2-27.2-19.4-61.6-28.6-97.8-32.4 55 103.2 148 144.2 253.8 165.2 121.2 24.2 262.4-35.4 362.2-153.8-2.4-7.2-5-14.6-7.8-22zM983 600.6c0-134 0-257.2 0-387.4-22.8-1.2-43.6-2.2-71.8-3.6 0 122.6-1 239.6 0.4 356.4 0.8 54.6 39 30.6 71.4 34.6zM514.8 211.8c-24.6 0-42.6 0-68.2 0 0 120.8-1 239.4 1.6 357.8 0.2 10.8 23.6 21 36 31.4 10.2-12.6 28.8-25.2 29-38 2.6-114.8 1.6-229.8 1.6-351.2z" />
<glyph unicode="&#xe93f;" glyph-name="zhada" d="M393.4-15.8c-27-15.8-51.2-25.4-77-25.4-66 0-121.2 54-124.4 119.2l128.6 76.6 200.2-89.6-127.4-80.8zM470 313.8l-95.8 42.2c-42.6 19-83 35-83 82 0 24.4 7.4 37.2 19 49.8l202.4-89-50-29c-14-8.4-23.6-15.8-23.6-26.6 0-11.6 13.2-21.4 31-29.4v0zM563.8 755l-97.8-59.6c-8.8-5.2-20.4-13.6-20.4-26.6 0-14.8 22.6-26.2 42.6-35.8l-122.6 54c-36 16-72.2 34-72.2 77.6 0 18.4 5.2 33.2 13.8 45.8l265.2 162c31.8-18 62.6-54.4 62.6-103.2 0-52.4-26.6-87.4-71.2-114.2v0zM772.4 563.4l-24.2-13.8-202.6 89.4 235.2 141.8c31.8-18.4 62.8-54.4 62.8-103.2 0.2-52.4-25.4-88.4-71.2-114.2v0zM601.2 391.4l119.8-52.8c45-20 58.6-43.6 58.6-73.4 0-17-9.6-34-23.2-45.6l-201.6 89.4 34 19.2c28.8 15.8 38.6 25.6 38.6 36 0.2 11.2-6.6 18.4-26.2 27.2v0zM815-50.8c-51 39.2-105.4 65.8-171.6 95.8l-305.4 135.2c-76.8 34.2-127.6 79.8-127.6 156.4 0 74.6 36 110.6 83 140.4l16.8 10.6c-11.6-12.6-19-25.4-19-49.8 0-47 40.4-63 83-82l355.4-156.6c61.8-26.6 118.4-72.2 118.4-150 0-42.6-16.2-80.8-33-100v0zM778.8 233.6l-22.2-13.8c13.6 11.6 23.2 28.8 23.2 45.6 0 29.8-13.8 53.4-58.6 73.4l-379.8 167.4c-76.8 34-124.6 77.6-124.6 154 0 70.2 35 116.4 90.4 150.2-8.4-12.8-13.8-27.6-13.8-45.8 0-43.6 36.2-61.6 72.2-77.6l369.4-163c67.2-29.6 121.6-74.6 121.6-156.6-0.2-63.8-30-104.2-77.8-133.8v0z" />
<glyph unicode="&#xe940;" glyph-name="daxin" d="M161.8 946.6h703.6c0 0 158.4-30.6 158.4-205 0-185.2-151.8-213.2-151.8-213.2h-294v311.4h-126.8l0.2-311.6h-295.4c0 0-155.8 32.2-155.8 210.4s161.6 208 161.6 208v0zM862.6-17.8h-703.6c0 0-158.4 30.6-158.4 205 0 185.2 151.8 213.2 151.8 213.2l293.2 0.2-293.2-254.6 95-106.6 268.4 233.2 266.6-234.2 91.8 106.6-292.6 255.2 286.6 0.2c0 0 155.8-32.2 155.8-210.4 0.2-178-161.4-207.8-161.4-207.8v0z" />
<glyph unicode="&#xe941;" glyph-name="shanghai" d="M526.2 533.6c131.6 0 247.2-10.6 346.6-30.2 60.4-12.4 108.4-24.8 147.6-40.8l-512 510.2-508.4-508.4c44.4 16 101.4 30.2 168.8 40.8 108.6 19.6 227.6 28.4 357.4 28.4v0zM508.4-51.2l508.4 510.2c-71.2 5.4-169 5.4-291.6-3.6-129.8-8.8-218.6-21.4-270.2-37.4-46.2-14.2-67.6-33.8-64-56.8 0-7.2 3.6-16 10.6-23.2l12.4-10.6c17.8-12.4 28.4-17.8 32-21.4 16-14.2 21.4-32 17.8-53.4-7.2-28.4-64-58.6-168.8-88.8l213.4-215z" />
<glyph unicode="&#xe942;" glyph-name="xingye" d="M1024 452.4c0 131.2-178 237.6-397.4 237.6-175.6 0-324.4-68.2-377.2-162.6l0.2 0.2c-5-8.8-7.6-18.4-7.6-28.4 0-23.6 14.8-44.6 38-58.2l201.4-116.4c10.4-5.6 22.8-9 36.2-9s25.8 3.4 36.4 9l191 110.2c12.8 7.6 21 19.2 21 32.2 0 12.8-7.8 24-19.8 31.6l-71.2 41-157.4-91-119 68.8c45.8 41.6 131.6 69.4 230 69.4 146.8 0 265.8-62.4 265.8-139.4-3-119-177.6-211.2-389.8-205.8-212.4 5.6-382 106.6-378.8 225.8v0c1.6 157.2 207.4 282.6 459.8 280 22.6-0.2 44.6-1.4 66-3.6-51.8 19.2-116.4 30.4-186.8 30.4-56.2 0-108.8-7.4-154.2-19.8v0c-182.6-50.2-310.6-166.4-310.6-302 0-181.6 229.2-329 512-329s512 147.4 512 329v0z" />
<glyph unicode="&#xe943;" glyph-name="beijing" d="M1004 321.2l4.8 17.2 4 17.2 3.4 17.6 2.8 17.2 1.2 8.6 1 9.2 1 8.6 0.8 8.8 0.4 9.2 0.6 9v9l0.4 9-0.4 13.2-0.2 12.8-2 25.6-1.2 12.8-1.6 12.6-1.8 12.4-2.6 12.2-2.4 12.2-2.8 12.2-2.8 12-3.6 11.8-3.6 11.6-4.2 11.6-4.2 11.4-4.4 11.4-10 22.4-5.6 11-11.6 21.6-6.4 10.6-6.8 10.6-6.8 10.2-7.2 10.4-7.6 10-7.8 10-7.8 9.6-8.4 10-8.8 9.4-8.8 9.8-9.2 9.4-9.4 9-9.8 9-9.6 8.4-9.8 8.6-10 8-10 7.8-10.2 7.6-10.4 7.2-10.2 6.8-10.6 6.6-21.6 12.4-11 5.6-11 5.4-11.2 5.2-11.2 4.8-11.6 4.6-11.6 4.4-11.4 3.8-11.6 3.8-12 3.4-11.8 3.2-12.2 2.8-12.2 2.4-12.2 2.2-12.4 1.8-12.6 1.6-12.4 1.6-12.8 1-25.8 1.2h-26.2l-26.2-1.2-12.8-1-12.6-1.6-12.4-1.6-12.6-1.8-12.4-2.2-12.2-2.4-12.2-2.8-11.8-3.2-12-3.4-11.4-3.8-11.6-3.8-11.6-4.4-11.2-4.6-11.4-4.8-11.2-5.2-11-5.4-10.8-5.6-21.2-12.4-10.8-6.6-10.2-6.8-10.4-7.2-10-7.6-10-7.8-10-8-10-8.6-9.4-8.4-9.6-9-9.4-9-9.4-9.4-8.6-9.8-8.8-9.4-8.4-10-8.2-9.6-7.6-10-7.4-10-7.2-10.4-7.2-10.2-6.6-10.6-6.2-10.6-6-10.8-5.8-10.8-5.4-11-10-22.4-4.6-11.4-4.2-11.4-4-11.6-3.8-11.6-3.4-11.8-3.2-12-2.8-12.2-2.4-12.2-2.2-12.2-1.8-12.4-1.6-12.6-1.2-12.8-1.4-12.8-0.6-12.8-0.2-12.8-0.4-13.2 0.4-13 0.2-13.2 0.6-12.8 1.4-12.8 1.2-12.8 1.6-12.4 1.8-12.6 2.2-12.2 2.4-12.2 2.8-12.2 3.2-12.2 3.4-11.8 3.8-11.6 4-11.8 4.2-11.4 4.6-11.4 5-11.4 5-11.2 5.4-10.8 5.8-11 6-11 6.2-10.6 6.6-10.6 7.2-10.6 7.2-10.4 7.4-10 7.6-10.2 8.2-9.8 8.4-10 8.8-9.6 8.6-9.8 18.8-18.4 19-17.8 10-8 10-8.2 10-7.8 10-7.6 10.4-7.2 10.2-6.8 10.8-6.6 21.2-12.4 10.8-5.6 11-5.8 11.2-5 11.4-5 11.2-4.2 11.6-4.4 11.6-4.2 11.4-3.4 12-3.4 11.8-3.2 12.2-2.8 12.2-2.4 12.4-2.2 12.6-1.8 12.4-2 12.6-1.2 12.8-1 26.2-1.2h13.2l18.4 0.4 18.2 0.6 17.8 1.4 17.8 2 17.4 2.4 17 3.2 17.2 3.8 16.4 4 16.4 5 16.2 5.4 16 5.8 15.6 6.4 15.2 7 15.4 7.6 15 8.2 14.6 8.4 10 6.2 9.8 6.2 9.4 6.4 8.6 6.4 8.8 6.4 8.2 6.4 7.8 6.6 7.4 6.6 13.8 13.4 6.2 7 6 6.8 5.6 7.2 5.4 6.8 9.2 14.4 4.2 7.2 3.8 7.2 3.4 7.2 3 7.4 2.8 7.6 2.2 7.4 2.2 7.6 1.6 7.8 1.2 7.4 1 7.8 0.4 8 0.2 7.8-0.2 8-0.4 7.8-1 8.2-1.2 8.2-1.6 6.4-1.6 7-1.8 6.2-1.8 6.6-2.6 6.2-2.4 6-2.8 5.8-3.2 6-6.8 11.2-4.2 5.8-4 5.2-8.8 10-10 10-5.2 4.6-5.6 4.4-12 8.8-6.2 4-6.6 4.2-6.8 3.8-7.2 4-7.2 3.4-7.6 3.4-7.8 3.4-8 3.2-8.4 3.2-8.6 3-8.6 2.8-9.2 2.8-23.4 8.2 7.6 4.4 7.2 4.6 6.8 4.8 6.2 5 6 5.2 5.6 5.4 5 5.6 4.6 6 4.4 5.8 7.6 12.8 2.8 6.6 2.8 7 2.2 6.8 1.6 7.2 1.4 7.4 0.8 8.8 0.2 8.2-0.2 8.4-0.8 8.4-1.4 8.2-2.2 8-2.6 7.8-3 8.2-3.8 7.8-4.4 7.8-5 7.8-5.6 7.6-6.2 7.4-7 7.6-7.4 7.2-7.8 7.2-8.8 7.4-8.8 7.2-9 6.6-9.4 6.2-9.6 6-10 5.6-10.4 5-10.6 5-11 4.4-11.2 4.4-11.6 3.6-11.8 3.6-12.2 3-12.6 3.2-12.8 2.4-13 2.2-15 2.2-15 2-31.4 2.8-15.8 1.2-16.4 1-16.2 0.6-16.8 0.2-17 0.4-17-0.4h-17.6l-17.8-0.6-18.2-1-18.4-0.8-18.4-1-18.8-1.6v-161.6l15 2 15 1.8 15 1.2 15.4 1.4 30.2 1.6 15.4 0.2h31l30.8-1.2 15.6-1.2 31.4-2.8 15.8-2 16-1.8 12.8-2.2 12.2-2.6 11.2-2.8 10.6-2.8 9.8-3.4 9-3.4 8.4-3.8 7.6-4 3.4-2 3.2-2.2 3-2.4 2.8-2.2 2.8-2.4 2.2-2.6 2.6-2.4 1.8-2.6 2-2.8 1.8-2.8 1.6-2.8 1.2-3.2 1-2.8 0.8-3 0.8-3.2 0.6-3.4v-5.6l-0.6-2.8-0.8-3.2-2.4-6.8-3.4-7.8-2.2-3.2-2.6-3.2-2.8-2.8-6.8-4.4-3.8-1.8-4-1.6-4.4-1.2-4.8-1-5.2-0.8-5.4-0.4h-11.8l-6.2 0.4-6.6 0.8-7.2 1-18.8 2.2-18.4 1.8-18.4 1.6-18.2 1.2-17.8 1-17.8 0.6-17.8 0.4-17.4 0.2-17.2-0.2-17.2-0.4-17.2-0.6-17-1-16.4-1.2-16.6-1.6-16.2-1.8-16.4-2.2v-164.8l22.8 2.6 22.2 2.4 22 2 21.8 1.6 21 0.8 20.8 1 20.4 0.4h20l19.6-0.6 19.4-0.8 18.8-1.2 18.4-1.8 18.2-2 17.8-2.4 17.2-2.8 16.8-3.2 13.4-2.4 12.6-3.2 11.8-3.2 11-3.4 10.2-4 9.4-4 4.4-2.2 4.2-2.2 4-2.2 3.8-2.6 3.4-2.4 3.4-2.6 3.2-2.8 2.8-2.4 2.8-2.8 2.4-2.8 2.2-2.8 2.2-3.2 1.8-3.2 1.6-3 1.6-3.2 1-3.4 1.2-3.2 1.2-6.8 0.6-3.8v-2.8l0.4-3-0.4-3.2v-2.8l-0.6-3.2-0.6-2.8-1-3.2-0.8-2.8-1.4-3-3-6-2-3.2-4-6.2-5-6.2-3-3.8-7.6-6.8-4-3.2-4.2-3-4.2-3.2-4.4-2.8-4.8-2.8-4.6-2.8-5-2.6-5.4-2.4-5.2-2.6-5.6-2.2-6-2.2-6-1.8-6.2-1.8-6.2-2-6.6-1.6-6.6-1.4-7.2-1.4-14.4-2.4-15-2.2-15.8-1.6-17-1.2-17.4-0.6h-28.2l-9.6 0.2-9.8 0.6-19 1.6-9.4 1.4-9 1.2-9.4 1.6-9 1.8-9.2 2.2-8.8 2.2-8.6 2.4-8.8 2.6-8.8 3-16.8 6.4-8.4 3.6-8.4 3.8-8.2 3.8-8.2 4.4-7.8 4.4-7.8 4.6-7.8 4.8-7.8 5-7.4 5.2-7.6 5.6-7.4 5.6-7.6 6-7.2 6.2-7.2 6.4-6.8 6.4-7.2 7-6.6 6.8-13.2 14.4-6.2 7.2-6 7.2-5.6 7.4-5.6 7.6-5.2 7.4-5 7.8-5 7.6-4.8 8.2-4.4 7.8-4 8-4 8.2-3.8 8-3.8 8.6-3.4 8-3.2 8.8-2.8 8.4-2.8 8.8-2.4 8.8-2.2 8.6-2.2 9.2-1.8 9-1.6 9-1.6 9.4-1 9.4-1.2 9.4-0.6 9.4-0.6 9.6-0.4 9.8v19.4l0.4 9.6 0.6 9.8 0.6 9.2 1.2 9.4 1 9.4 1.6 9 1.6 9.4 1.8 8.8 2.2 9 2.2 8.8 2.4 9 5.6 17.2 3.2 8.6 3.4 8.4 3.8 8.4 3.8 8.2 4 8 4 8.2 4.4 8 4.8 7.8 5 8 5 7.4 5.2 7.8 5.6 7.6 5.6 7.4 6 7.2 6.2 7.2 13.2 14.4 6.6 6.8 7.2 7 14.4 12.8 7.2 6.2 7.4 6 7.6 5.6 7.4 5.6 7.6 5.2 15.6 10 7.8 4.8 8 4.4 8.2 4.4 8.2 4 8 3.8 8.4 3.4 8.6 3.4 8.4 3.2 8.8 3 8.4 2.6 9 2.4 8.8 2.6 18 3.6 9.2 1.6 9 1.6 9.4 1.2 9.6 1 9.4 0.6 9.8 0.6 9.6 0.4 9.8 0.2 9.6-0.2 9.6-0.4 9.8-0.6 9.4-0.6 9.4-1 9.2-1.2 9.2-1.6 9-1.6 9-1.8 9.2-1.8 8.6-2.6 8.8-2.4 8.8-2.6 8.4-3 8.8-3.2 8.2-3.4 8.4-3.4 8-3.8 8.2-4 8.2-4.4 7.8-4.4 8-4.8 7.6-5 7.8-5 7.4-5.2 7.6-5.6 7.2-5.6 7.4-6 7.2-6.2 7-6.4 7.2-6.4 13.4-13.8 6.4-7 6.6-7 6.4-7.2 5.8-7.2 5.6-7.6 5.6-7.4 5.4-7.6 5-7.8 4.6-7.8 4.8-7.8 4.6-8.2 4.2-7.8 4-8.4 3.8-8 3.6-8.6 3.6-8.4 3-8.4 5.6-17.6 2.6-8.6 2.2-8.8 2.2-9 1.8-9.2 1.6-9 2.4-18.8 1-9.4 1-9.2 0.6-9.8 0.4-9.6v-9.8l-2-41.2 8.2-5 8-4.6 8.2-5.4 7.8-5.4 7.6-5.6 7.4-5.6 7.6-5.6 7.2-6.2 7-6.2 7.2-6.4 6.6-6.6 7-6.4 6.4-7.2 6.4-7 6.2-7.4 6.2-7.6z" />
<glyph unicode="&#xe944;" glyph-name="ddd" d="M117.2 444.2c0-28.387-23.013-51.4-51.4-51.4s-51.4 23.013-51.4 51.4c0 28.387 23.013 51.4 51.4 51.4s51.4-23.013 51.4-51.4zM567.4 444.2c0-28.387-23.013-51.4-51.4-51.4s-51.4 23.013-51.4 51.4c0 28.387 23.013 51.4 51.4 51.4s51.4-23.013 51.4-51.4zM1017.6 444.2c0-28.387-23.013-51.4-51.4-51.4s-51.4 23.013-51.4 51.4c0 28.387 23.013 51.4 51.4 51.4s51.4-23.013 51.4-51.4z" />
<glyph unicode="&#xe945;" glyph-name="qiyezu" d="M320 768c0 106.039 85.961 192 192 192s192-85.961 192-192c0-106.039-85.961-192-192-192s-192 85.961-192 192zM768.078 512h-35.424l-199.104-404.244 74.45 372.244-96 96-96-96 74.45-372.244-199.102 404.244h-35.424c-127.924 0-127.924-85.986-127.924-192v-320h768v320c0 106.014 0 192-127.922 192z" />
<glyph unicode="&#xe946;" glyph-name="ziyouzhiyeze" d="M576 253.388v52.78c70.498 39.728 128 138.772 128 237.832 0 159.058 0 288-192 288s-192-128.942-192-288c0-99.060 57.502-198.104 128-237.832v-52.78c-217.102-17.748-384-124.42-384-253.388h896c0 128.968-166.898 235.64-384 253.388z" />
<glyph unicode="&#xe947;" glyph-name="shangbanzu" d="M113.4 806.4c11.6 35.4 35.6 48.4 73 46.6 55.2-2.4 110.6-0.6 168.4-0.6 0-32.2 0-62.4 0-96.2-45.4 0-90.8 0-138.4 0 0-238.4 0-473.4 0-711.2 204.2 0 409 0 616 0 0 235.8 0 470.8 0 709.2-46.4 0-91.6 0-139.4 0 0 33.4 0 63.6 0 96.8 66.4 0 132.2 2.4 197.6-1.8 14.2-1 28.6-23.8 39.4-39.2 5.2-7.4 2-20.8 2-31.4 0-253.6-0.2-507.4 0.4-761 0-27.2-5.2-50.2-25.2-69-264 0-528 0-793.6 0-0.2 286-0.2 572-0.2 857.8zM627.2 966.4c4.2-13.8 11.6-27.6 11.8-41.4 1.2-76.6-0.2-153.4 1-230 0.4-24-8.2-37.8-30-46.2-60.4-23.4-120.2-23.4-180.6-0.4-21.6 8.2-31.4 21.8-31.2 45.8 1 76.6-0.2 153.4 0.8 230 0.2 14 6.8 28.2 10.4 42.2 72.8 0 145.2 0 217.8 0zM448.2 914.8c0-56.8 0-109.8 0-163 0-65.2 8.2-73.8 74-71.8 16.8 0.6 34 3.4 50.2 8.2 7 2.2 16.4 12 16.6 18.6 1.2 68.8 0.8 137.6 0.8 208-48.6 0-93 0-141.6 0zM520 831.4c-23.8 2.2-38.6 14.8-38.4 38.6s15.4 38 38.8 37.4c21.6-0.4 36-14 36.6-36.4 0.4-24-13.8-36.6-37-39.6zM490.2 350.2c-59.6 22.8-81 79.4-70.8 124.4 11.4 50 54.6 84.6 105.6 84.2 50.2-0.4 93.4-36.2 103.4-85.8 9.6-47.6-14.2-101.4-71.2-122.8 2.8-0.8 4.6-1.6 6.6-2 101.2-23.2 164-122.6 141.6-223.8-1.2-5.4-3.6-8.4-8.6-10.8-66-31-135.4-41.8-207.8-34.8-48.4 4.6-95 16.2-139.6 35.2-5 2.2-7 5-8.2 10.2-22.8 101.2 40.6 201.6 141.8 224 2 0.4 4 1 7.2 2zM520.2 95.8c13 14.4 25.4 28.4 38.2 41.8 4.2 4.4 4.8 8.2 3.2 13.8-11 40.8-21.6 81.6-32 122.6-1.2 4.4-0.4 9.8 1.2 14 4.4 12 9.4 23.8 14.6 36-16.6 0-32.2 0-48.8 0 6.4-12.2 12-24 18.4-35.6 2.8-5.2 3.4-9.6 1.6-15.4-11.8-40.6-23.4-81-34.8-121.6-0.8-2.6-1.4-6.6 0-8.2 12.2-16 25.2-31.4 38.4-47.4z" />
<glyph unicode="&#xe948;" d="M698 252.8l-32 16h-320l-32-16 192-304z" />
<glyph unicode="&#xe949;" d="M746 620.8c-16 0-16-17.8-16-17.8v17.8c0 17-0.4 33.4-1 49-64.8 63-223 63-223 63s-158.2 0-223-63c-0.8-15.6-1-32-1-49v-128l64-160 81.6-64c9.2-10.2 22.2-16 35.8-16h84.8c13.6 0 26.8 5.8 35.8 16l81.6 64 51.4 128.2c45.4 3.2 60.6 72 60.6 124.2 0.4 17.8-15.6 35.6-31.6 35.6z" />
<glyph unicode="&#xe94a;" d="M282 620.8v-17.8c0 0 0 17.8-16 17.8s-32-17.8-32-35.6c0-52 15.4-120.8 60.6-124.2l51.4-128.2 81.6-64c9.2-10.2 22.2-16 35.8-16h42.4v480c0 0-158.2 0-223-63-0.4-15.6-0.8-32-0.8-49z" />
<glyph unicode="&#xe94b;" d="M426 428.8h160c0 0 0-48-80-48s-80 48-80 48z" />
<glyph unicode="&#xe94c;" d="M602 583.6c19 0 36-4.2 47.6-10.8 1.2 9.2-2.8 18.4-12 25.4-16.4 12.4-43.2 12.4-59.8 0-7.4-5.6-11.4-12.8-12-20.2 10.4 3.6 22.8 5.6 36.2 5.6z" />
<glyph unicode="&#xe94d;" d="M409.8 583.6c-19 0-36-4.2-47.6-10.8-1.2 9.2 2.8 18.4 12 25.4 16.4 12.4 43.2 12.4 59.8 0 7.4-5.6 11.4-12.8 12-20.2-10.4 3.6-22.8 5.6-36.2 5.6z" />
<glyph unicode="&#xe94e;" d="M546.4 252.8h-84.8c-13.6 0-26.8 5.8-35.8 16l-81.6 64v-72c0 0 0-120 160-120s160 120 160 120v72l-81.6-64c-9.4-10.2-22.4-16-36.2-16z" />
<glyph unicode="&#xe94f;" d="M506 732.8c0 0-12.2 0-31-1.4 0-20 0-67.8 0-90 59.6 0 95.6 43 116.4 83.8-46.8 7.6-85.4 7.6-85.4 7.6z" />
<glyph unicode="&#xe950;" d="M360.8 711.4c-30.4-9.4-59-23-78.8-42.6 0-56.6 37.2-84 37.2-84-4.8 47.2-5 78.2 41.6 126.6z" />
<glyph unicode="&#xe951;" d="M375.8 715.8c0-15.2 0-44.8 0-74.4 45.8 0 82.4 64.8 94.6 89.6-25-1.8-60-6-94.6-15.2z" />
<glyph unicode="&#xe952;" d="M687.6 697.6c0-6.2 0-72.2 0-112.8 39.8 0 42.4 74.6 42.4 84-11.6 11.6-26.2 21-42.4 28.8z" />
<glyph unicode="&#xe953;" d="M616.6 720.4c0-27.2 0-56.4 0-79 53.6 0 69.2 50.8 70.6 56.2-21.8 10.4-46.4 17.8-70.6 22.8z" />
<glyph unicode="&#xe954;" d="M427.6 269l-81.6 64v-72c0 0 0-120 160-120v112h-42.4c-13.8-0.2-26.8 5.6-36 16z" />
<glyph unicode="&#xe955;" d="M177.6 483.6v314c-11.2 4-21.8 7.8-32 11.6v-325.6c-41.8-27.6-16-109.6-16-152.8 16 0 24.8 0 29.4 0 1 0 1.8 0 2.6 0 2 0 2.6 0 2.6 0 4.8 0 13.6 0 29.4 0 0 43.2 25.8 125.4-16 152.8z" />
<glyph unicode="&#xe956;" d="M937.8 842.8c0 16-400 128-432 128s-432-112-432-128c0-10 119-51.4 208-80.8 0-27.6 0-60.2 0-95.2 64 64 224 64 224 64s160 0 224-64c0 34.8 0 67.6 0 95.2 89 29.4 208 70.8 208 80.8z" />
<glyph unicode="&#xe957;" d="M697.4 251.8l0.6 1-32 16-159.8-79.6 92.8-93.4z" />
<glyph unicode="&#xe958;" d="M570-51.2l-44.8 163.2 28.8 28.8-48.4 48.4-47.8-48 29-29-44.8-163.4z" />
<glyph unicode="&#xe959;" d="M506-51.2v240l-0.4 0.4-47.8-48 29-29-44.8-163.4z" />
<glyph unicode="&#xe95a;" d="M314.6 251.8l-0.6 1 32 16 159.8-79.6-92.8-93.4z" />
<glyph unicode="&#xe95b;" d="M-6-51.2l64 176c9.8 21.4 27.2 38.4 48.6 47.8l207.4 80.2 192-304h-512z" />
<glyph unicode="&#xe95c;" d="M1018-51.2l-64 176c-9.8 21.4-27.2 38.4-48.6 47.8l-207.4 80.2-192-304h512z" />
<glyph unicode="&#xe95d;" d="M506-51.2l-192 304-144-48 272-256z" />
<glyph unicode="&#xe95e;" d="M506-51.2l192 304 144-48-272-256z" />
<glyph unicode="&#xe95f;" d="M698 252.8l-32 16h-320l-32-16 192-304z" />
<glyph unicode="&#xe960;" d="M746 620.8c-16 0-16-17.8-16-17.8v17.8c0 17-0.4 33.4-1 49-64.8 63-223 63-223 63s-158.2 0-223-63c-0.8-15.6-1-32-1-49v-128l64-160 81.6-64c9.2-10.2 22.2-16 35.8-16h84.8c13.6 0 26.8 5.8 35.8 16l81.6 64 51.4 128.2c45.4 3.2 60.6 72 60.6 124.2 0.4 17.8-15.6 35.6-31.6 35.6z" />
<glyph unicode="&#xe961;" d="M282 620.8v-17.8c0 0 0 17.8-16 17.8s-32-17.8-32-35.6c0-52 15.4-120.8 60.6-124.2l51.4-128.2 81.6-64c9.2-10.2 22.2-16 35.8-16h42.4v480c0 0-158.2 0-223-63-0.4-15.6-0.8-32-0.8-49z" />
<glyph unicode="&#xe962;" d="M426 428.8h160c0 0 0-48-80-48s-80 48-80 48z" />
<glyph unicode="&#xe963;" d="M602 583.6c19 0 36-4.2 47.6-10.8 1.2 9.2-2.8 18.4-12 25.4-16.4 12.4-43.2 12.4-59.8 0-7.4-5.6-11.4-12.8-12-20.2 10.4 3.6 22.8 5.6 36.2 5.6z" />
<glyph unicode="&#xe964;" d="M409.8 583.6c-19 0-36-4.2-47.6-10.8-1.2 9.2 2.8 18.4 12 25.4 16.4 12.4 43.2 12.4 59.8 0 7.4-5.6 11.4-12.8 12-20.2-10.4 3.6-22.8 5.6-36.2 5.6z" />
<glyph unicode="&#xe965;" d="M548.4 254.8h-84.8c-13.6 0-26.8 5.8-35.8 16l-81.6 64v-72c0 0 0-120 160-120s160 120 160 120v72l-81.6-64c-9.4-10.2-22.4-16-36.2-16z" />
<glyph unicode="&#xe966;" d="M506 732.8c0 0-12.2 0-31-1.4 0-20 0-67.8 0-90 59.6 0 95.6 43 116.4 83.8-46.8 7.6-85.4 7.6-85.4 7.6z" />
<glyph unicode="&#xe967;" d="M360.8 711.4c-30.4-9.4-59-23-78.8-42.6 0-56.6 37.2-84 37.2-84-4.8 47.2-5 78.2 41.6 126.6z" />
<glyph unicode="&#xe968;" d="M375.8 715.8c0-15.2 0-44.8 0-74.4 45.8 0 82.4 64.8 94.6 89.6-25-1.8-60-6-94.6-15.2z" />
<glyph unicode="&#xe969;" d="M687.6 697.6c0-6.2 0-72.2 0-112.8 39.8 0 42.4 74.6 42.4 84-11.6 11.6-26.2 21-42.4 28.8z" />
<glyph unicode="&#xe96a;" d="M616.6 720.4c0-27.2 0-56.4 0-79 53.6 0 69.2 50.8 70.6 56.2-21.8 10.4-46.4 17.8-70.6 22.8z" />
<glyph unicode="&#xe96b;" d="M697.4 251.8l0.6 1-32 16-159.8-79.6 92.8-93.4z" />
<glyph unicode="&#xe96c;" d="M570-51.2l-44.8 163.2 28.8 28.8-48.4 48.4-47.8-48 29-29-44.8-163.4z" />
<glyph unicode="&#xe96d;" d="M506-51.2v240l-0.4 0.4-47.8-48 29-29-44.8-163.4z" />
<glyph unicode="&#xe96e;" d="M314.6 251.8l-0.6 1 32 16 159.8-79.6-92.8-93.4z" />
<glyph unicode="&#xe96f;" d="M-6-51.2l64 176c9.8 21.4 27.2 38.4 48.6 47.8l207.4 80.2 192-304h-512z" />
<glyph unicode="&#xe970;" d="M1018-51.2l-64 176c-9.8 21.4-27.2 38.4-48.6 47.8l-207.4 80.2-192-304h512z" />
<glyph unicode="&#xe971;" d="M282 668.8v28.8c24.6 83 274.8 234 448 0v-49.4z" />
<glyph unicode="&#xe972;" glyph-name="changheng" d="M489.4 948.6c21.6-113.8 15.6-103.6-84.8-137.8-117-40-196.2-118.2-236-235.6-34.4-101.2-34.6-101.2-149-83-24.2 223.4 234 466.6 469.8 456.4zM17.2 431c18.8 1.4 37.8 3.4 57 4 24 0.8 48 0.2 73 0.2 32.4-198.8 145.6-310.8 341.4-346.8 0-42.2 0-84.8 0-127.2-239.8-11.2-481.4 229.6-471.4 469.8zM546.6-43.2c0 46.2 0 87 0 131.6 195.8 32 309.6 147 344 341.6 45 0 87.8 0 130.4 0-4.8-251.8-212.6-460.4-474.4-473.2zM552.6 951.6c254.6-8.8 463.8-211.2 468.4-461.8-42.8 0-85.4 0-129.6 0-34.4 180.6-131.4 298.8-315.4 337-14 2.8-21 23.2-27.4 43-5 15.6-1.4 34-0.6 51.2 0.4 9.6 2.6 17 4.6 30.6zM320 489.8c-19.4 197.6-31.8 191.2 163.8 169 1.4-97.2-51.2-153-163.8-169zM546.8 664.4c58 0 110.8 0 168.2 0 0-58.6 0-113.4 0-168.4-104.2-2-168 60.2-168.2 168.4zM314.2 259c0 61 0 114 0 167 102 3.4 164.4-56.6 172.8-167-55.8 0-111 0-172.8 0zM720.4 432.4c0-58.2 0-111.8 0-171.8-57.4 0-114.2 0-171.4 0 12.6 107.8 52.4 148.6 171.4 171.8z" />
<glyph unicode="&#xe973;" glyph-name="zhonganxindai" d="M21 960.8h646v-338h-646v338zM21 698.8h282v-737h-282v737zM367 280.8h636v-320h-636v320zM713 960.8h290v-984h-290v984z" />
<glyph unicode="&#xe974;" glyph-name="yirendai" d="M610.8 425c0-105 0-203.4 0-303.4-51.8 0-96.8 0-147.2 0 0 100 0 197.4 0 295.8-50.2-13.2-76-44.8-77.2-94.4-1.4-58.4-0.4-117-0.4-178-34 0-62.2 0-98.2 0 0 46.4 0 92.8 0 139.4-0.2 98.2-18.6 121.6-114.6 146.6-3.4 0.8-6.2 4-9.4 6.2 26.2 37.2 114.2 20.2 169.6-29.6 35.6 18.6 69.6 36.2 104.6 54.4-15.8 50.2-67.8 81.8-169.2 91 12 14.6 19.6 31.8 27.6 32.2 89.6 3.8 180.6 8.2 242.8-82.2 61.4 88.8 151.2 86.6 240.8 82.6 9.6-0.4 18.8-15.8 25.2-29.2-77-4.2-136.2-29-172.6-92.4 37.6-18.2 73.8-35.6 115.2-55.6 31.6 43.8 84.6 48 139.4 45.6 8.8-0.4 17.2-6.8 25.6-10.4-7.4-4.8-14.4-12.2-22.4-14-69.6-14.2-102.6-53.8-103-125.8-0.4-49.6-0.8-99.4-1.2-149 0-2.4-1.6-4.8-2.6-7.2-2.2-1.4-4.2-3.8-6.4-4-85.8-6.8-85.6-6.8-85.8 77 0 32.6 0.4 65.4-1 98-1.8 48-25.6 81-79.6 106.4zM535.8 880.6c-52.8-12.8-105.6-26-158.8-37.8-10.4-2.2-14.2 10.4-25.2 11.8 8 8.4 6.4 12.4 16.2 16.2 317.2 120.6 643-108.4 647.4-431.6 2.6-193.8-83.4-341.2-254.6-431.2-171.4-90-341.2-74.8-499.8 35.6-204.4 142.2-257.4 439-118 646 2.2 3.2 3.8 7.6 7 9.4 9.8 5.6 19.4-12 29.6-7-1.6-10.4 0 0-4.4-9-15-30.4-34.4-58.8-47.4-89.8-93.2-225 18.2-486.6 245.2-578.4 227.2-91.8 488.4 17.6 579.8 242.8 120.6 297.6-93.8 615.2-417 623zM535.4 738c45 0.8 83.6-34.8 85-78.8 1.6-45.6-37.4-86-82.8-85.8-45 0.2-81.2 36.2-82.2 81.6-1 45.6 34.4 82.2 80 83zM258.6 822.8c15.8-21.8 32.4-20.6 30.8-31-2.2-13.2-19.8-24-30.8-35.8-11 10.4-30.4 20.6-30.8 31.6-0.4 13 15.8 12 30.8 35.2z" />
<glyph unicode="&#xe975;" glyph-name="xinxindai" d="M507.2 676.4c18-4.6 36.2-9 58.6-14.8 1-23.8 2-48.6 3.4-87-34.2 0-64.4 3.6-93.6-1.4-17.2-3-32.8-19.4-49-29.8 16.6-14 31.6-33.4 49.8-40.8 36.4-14.8 107.2 33.6 88.4-82.8-41.2-2.6-83.2-5.2-135.6-8.4 0-121.6 0-242.8 0-368.4-64.4 9.2-86.6 41.8-83.4 108.8 4 82.6 1 165.8 1 258.8-48.6 2.8-92.4 5.4-139.4 8.2 0 26.6 0 48.2 0 82.4 28.6 0 57.2-4.4 84 1.6 19.2 4.2 36.2 22.6 54.2 34.8-17 12.4-32.8 31.4-51 35.6-27.2 6-56.2 1.6-87.6 1.6 0 32.8 0 57.6 0 64.2 28 32.4 48.4 56 68.8 79.6 0.4 11 0.8 22.2 1.2 33.2 22.2-19.4 46.2-36 66-58.4 32-36.2 57.6-38.6 88.4 3.6 16.6 22.8 42 36.2 75.8 64.2 0-44.6 0-63 0-84.8zM636.2 19.4c0 302 0 597.6 0 899.4 80.4 0 158 0 243.6 0 1-26.8 2-52.8 3.2-87-59 0-110.8 0-172.8 0 0-83.8 0-160.2 0-236.8 0-152.4-2-305 1-457.2 1.2-64.2-14-104.8-75-118.4zM804.2 159.8c0 133.8 0 267.6 0 388-27.4 26.6-47 45.6-66.6 64.4 19.2 18.4 36.6 40.4 57.8 54.4 24.2 16.2 51.6 25.6 93.4 45.2-21.2-194.6 41.6-388.8-84.6-552zM566.2 903.2c0-48.4 0-81.8 0-121.4-120 0-237.6 0-358.8 0 0 37.4 0 70.6 0 116.6 23.6-4.8 47.2-2.6 64.8-14.2 62.8-41.6 67.6-39.8 80.8 56.8 19.2 1.4 39.6 3 64.2 4.8 4.8-27 8.8-50.8 15.4-88 42.8 14.4 85 28.8 133.6 45.4zM569.6 353.6c0-120.6 1.6-226-1.2-331.4-0.6-22.8-16.4-45.2-25.4-67.8-17.2 22.4-48.2 43.6-49.4 67.2-5.4 105.2-2.4 210.8-2.4 325.6 25 1.8 46.8 3.6 78.4 6.4zM259.6 154.8c-20.6 60.4-41 120.8-62.4 183.2 91 25.4 91 25.4 82-173.8-6.4-3-13-6.2-19.6-9.4z" />
<glyph unicode="&#xe976;" glyph-name="rongliwang" d="M490.2 574.6c11.6 25.8 21.8 48.2 31.6 69.6-182.2 135.8-354 97.2-521.6-113.4 36.8 245.4 278.2 357.8 578 258.8 23.6 102.4 73.8 177 205.6 124-80.6-205.8-156.2-414-244.4-617-44.4-102.4-177.8-134.8-279.8-85.6-95.4 46.2-142.4 166.8-104.4 267.4 38.4 101.4 159.4 156.6 268 121.6 21.2-6.6 41.8-15.8 67-25.4zM355.8 316.8c28.4 30.2 53.4 56.4 78.8 83.4-28.8 32.2-50 56-78.8 88.2-31-30.6-55.2-54.6-83.8-82.8 32-34.2 55.6-59.2 83.8-88.8zM37.2 180c74.2-33.8 145.6-84.4 223.4-98 168.6-29.6 300.6 52.4 366.2 212 70.8 172 142.2 344.2 202.4 520 34 99 84.8 138.2 194.6 102.2-18.4-51.4-35.8-103.2-55.4-154-62.2-161.4-122.2-323.8-188.6-483.6-109.6-263.4-439.2-352.4-663.8-182.8-32.6 24.6-69.2 44.4-103.8 66.4 8.2 6 16.6 11.8 25 17.8z" />
<glyph unicode="&#xe977;" glyph-name="nuonuobangke" d="M279.8 719.6c12.4 7.6 23.8 16 36.4 21.6 59.8 26.6 116.2 20 168.6-19.2 3.2-2.4 5-2.2 7.6 0 13.8 12.2 30.2 20.4 47.4 26.6 10 3.6 20.6 5.4 31.2 6.8 9.6 1.4 19.4 1.6 29.2 1.4 18.6-0.2 36.4-5.2 53.6-12.2 18.4-7.4 34.2-19 48.8-32 3.6-3.2 6.8-7.2 10-11 0.8-0.8 1.4-2 1.4-3 0.2-8.4 0-16.8-0.8-25.8-5.8 8.4-11.6 16.8-17.4 25.2-3 4.2-5.6 8.6-8.8 12.8-0.8 1.2-2.4 2.8-3.6 2.8-6.6 0.2-13.2 0.2-20.2 0.2 0-25.8 0-51.2 0-76.8 7.2 0 14.4 0 21.8 0 0 13.6 0 26.8 0 41.4 1.6-1.8 2.4-2.6 3-3.6 7.8-11.4 15.8-22.8 23.4-34.2 2-3 4.2-4.2 7.8-4 5.6 0.4 11.2 0 17.4 0 0 8.8 0 17.2 0 25.6 0.4 0 0.8 0 1.4 0.2 9.8-22.6 15-46.2 15.2-71.2 0.6 1.2 1.4 2.2 1.8 3.4 3.4 8.6 6.8 17.2 9.8 26 1 2.8 2.2 4 5.2 3.8 6.2-0.2 12.4 0.2 18.4-0.2 1.6 0 3.8-1.4 4.2-2.8 9.2-23.8 18.2-47.6 27-71.4 0.2-0.6 0.2-1.4 0.2-2.2-7.8 0-15.6 0-23.6 0-0.4 0.8-0.6 1.4-1 2.2-3.6 10.4-3.6 10.4-14.8 10.4-1.4 0-2.6 0-4 0-3.6 0-8.2 1.2-10.8-0.6-2.4-1.6-2.6-6.4-4.2-9.6-0.6-1.2-2.4-2.6-3.4-2.4-11.8 2.6-16-3.6-19.6-13.8-7-19.6-19.4-36-33.8-50.8-4.8-5-10.4-9.2-15.6-13.6-1-0.8-2.2-1-4-1.8 0 3.6 0 6.8 0 10-7.4 0-14.2 0-21.6 0 0-6.2 0-11.8 0-18.2 1.8-0.2 3.8-0.6 7.4-1.2-3.4-2.4-5.8-4.4-8.6-5.8-15.4-7.4-31.4-13.4-48.8-14.6-13-1-26.2-2.2-39.2-1-17.4 1.6-34 6.6-50 14.2-11.8 5.6-22.8 12.4-32.8 20.6-2.4 2-4.2 1.6-6.4-0.2-22.4-18.2-48.2-29.6-76.8-33.6-42-5.8-80.6 3.2-115.6 27.4-4 2.8-8 6-12.2 9.2-32.4-26.4-69.6-40-111.6-37.6-44 2.4-81.6 20.4-110.8 53.4-58 65.8-52.2 156.6 2.2 215 58.4 62.4 154 68.6 219.6 14.2zM663 547.6c13.2 0 25.8-0.2 38.4 0 5.6 0.2 11.4 0.6 16.8 1.8 8.8 1.8 14.6 8.6 15.6 17.8 1 9-3 16-11.8 19.8-1 0.4-1.8 0.8-3 1.4 2.6 2 5 3.6 6.8 5.6 4.8 5.4 5.2 11.8 2.8 18.2-2.6 7.2-8.4 11.2-16 11.6-11.8 0.6-23.6 0.6-35.4 0.8-4.8 0-9.6 0-14.6 0 0.4-25.8 0.4-51 0.4-77zM386.2 637.6c-9-0.6-18-2-26.2-7-8.6-5.2-14.8-12.2-14.6-22.8 0.2-10.4 6.4-18 15.4-22.2 7.2-3.2 15.4-5.6 23.2-6.2 14-1 27.2 2.6 36.8 13.8 8.2 9.4 8 21-0.2 30.2-8.8 10.4-21 13.2-34.4 14.2zM294.8 486.6c51.8-46.2 134.2-42.4 179.8 0-1 1.2-2 2.2-2.8 3.4-1 1.4-1.8 2.6-2.8 3.8-2-1.4-2.8-2-3.8-2.6-22.2-17.4-47.2-26.8-75.4-27.8-30.8-1.2-58.4 7.8-83 26.2-6.8 5-6.6 5.2-11.6-1.6 0-0.2 0-0.6-0.4-1.4zM456.2 510.6c-1 1.8-2.4 3.6-3 5.6-1.8 4.8-4.2 4.2-7.8 1.6-36-26.6-85.2-27.6-122.4-2.6-1.6 1-3.2 2-5.2 3.2-2.2-3.6-4.2-6.8-6-10 38.8-31.6 103.8-32 144.4 2.2zM298.6 702.6c5.4-7.8 5.2-7.6 12.2-3 42.4 27.8 86.8 31.4 132.8 9.2 7.6-3.6 14.6-8.4 22-12.8 0.6 0.8 1.4 1.4 2 2.2 4 4.8 4 4.8-1.2 8.6-24 17.2-50.8 25.6-80.2 26-15.8 0.2-31.4-2.4-46.4-7.6-15-5.4-28.8-12.6-41.2-22.6zM437.8 549c-35.4-28.6-71.2-29-107.4-1.2-0.8-2-1.2-3.8-2.2-5.4-2.6-4.4-1.2-7.2 2.8-10.2 29.4-21.6 72.2-22.4 102.2-1.8 9.8 6.6 9.8 6.6 5.4 17.6 0 0.2-0.2 0.4-0.8 1zM322.2 665.8c41.8 30.6 83.2 30.6 124.4 1 6 7.4 6 8.4-1.4 13.6-24 16.6-50.6 21.6-79 17-18-2.8-34.2-10.4-48.6-22.6 1.6-2.8 3-5.8 4.6-9zM435.6 635c0.8 2.6 1.2 4.8 2.2 6.8 1.4 3.2 0.2 5-2.4 7-28 21.2-70.6 21.4-98.8 0.4-6.4-4.8-6.8-8.6-1.8-15.4 32.8 26.8 66.4 27 100.8 1.2zM337.8 581c-3-13.8-4-11.6 6.2-17.8 27.6-16.6 55.4-16.4 83 0 7.4 4.4 8 7.4 4 16.2-13.4-11.6-28.6-17.8-46.4-17.6-17.8 0-33 7-46.8 19.2zM779.4 603.6c-0.4 0-0.8 0-1.2 0-2.6-8.8-5.4-17.6-8-26.6 6 0 11.4 0 17.4 0-3 9.2-5.6 17.8-8.2 26.6zM370.4 325c-4.4-1.2-7.8-2.2-12-3.4 0 6.6 0 12.6 0 19-6 0-11.4 0-17.2 0 0 7.8 0 15.2 0 23.2 5.4 0 10.8 0 16.6 0 0.2 3.8 0.4 7 0.6 10.6 11.6 0 23 0 35 0 0.2-3.4 0.4-6.6 0.6-10 9.6 0 19 0 28.8 0 0.2 3.4 0.4 6.6 0.4 10.2 11.6 0 23 0 35 0 0.2-3.4 0.4-6.6 0.6-10.2 7.2 0 14.2 0 22.2 0-4.2-8-7.8-15-11.6-22-0.6-1-2.8-1-4.4-1.2-1.8-0.2-3.6 0-5.4 0-0.4-0.6-0.6-1-0.8-1.4-0.8-8.8-0.8-8.8-9.4-11.6-8.4-2.8-17-5.4-26-8.4 0 7.4 0 14 0 21.2-9.8 0-19.4 0-29.4 0 2.4-7.8-2.8-9.8-9.2-11.2 0.2-0.4 0.4-0.8 0.6-1.2 8 0 16 0 24.8 0-2.6-6.8-4.8-12.6-7.2-19.2 25.8 0 51.2 0 77.6 0-4-8-7.6-15.4-11.6-22.6-0.6-1-3.2-1.6-4.8-1.6-21.8 0-43.6-0.2-65.4 0-3.8 0-5.6-1-6.8-4.6-2.6-7.6-5.6-15-8.8-23.2 31 0 61 0 92 0 0-2.8 0-5.2 0-7.6 0-10.8 0.2-21.6-0.2-32.4 0-2-1-4.6-2.4-6-13.6-14-27.4-27.6-41.4-41.4-1.4-1.4-3.6-2.6-5.4-2.6-24.4-0.2-49-0.2-73.4 0-0.4 0-1 0.2-1.8 0.4 0 21.2 0 42.4 0 64.2-4.8 0-9 0-14.2 0 6.8 18 13.4 35.4 20.2 53.4-6 0-11.4 0-17 0 0 8 0 15.6 0 24 7.4 0 14.6 0.2 21.8 0 3.2-0.2 5 0.8 5.6 4 0.8 3.2 2 7 3.4 11.6zM439.4 191c0 14.6 0 28.6 0 42.4-18.4 0-36.2 0-54 0 0-14.4 0-28.2 0-42.4 18 0 36 0 54 0zM82.2 284.8c0 8 0 15.6 0 24 7.2 0 14.6 0.2 21.8 0 3 0 4.4 0.8 5.2 3.8 1 4 2.6 7.8 4.2 12.4-4.4-1.2-8.2-2.2-12.2-3.4 0 6.4 0 12.4 0 19-6 0-11.6 0-17.6 0 0 8 0 15.2 0 23 5.8 0 11.2 0 17.2 0 0.2 3.8 0.4 7 0.6 10.6 11.6 0 23 0 34.2 0 0.2-0.4 0.4-0.6 0.4-0.6 1.2-9.8 1.2-9.8 11.4-9.8 6 0 12 0 18.4 0 0.2 3.6 0.4 6.8 0.4 10.4 11.6 0 22.8 0 34.6 0 0-3.2 0-6.4 0-10 7.4 0 14.6 0 22.8 0-4.2-8-7.8-15.2-11.8-22.2-0.4-0.8-2.6-1-3.8-1.2-2.2-0.2-4.2 0-6.2 0-0.4-0.6-0.6-0.8-0.6-1.2-0.4-9-0.4-9-9.6-11.8-8.4-2.6-16.6-5.4-25.6-8.4 0 7.4 0 14.2 0 21.2-10 0-19.6 0-29.6 0-0.2-2.6-0.2-5.2-0.4-8.2-2.6-1-5.2-2-8-3 0-0.4 0-0.8 0-1.2 8 0 15.8 0 24.6 0-2.6-7-4.8-12.8-7.2-19.4 26 0 51.4 0 77.4 0-4-8-7.6-15.4-11.4-22.6-0.6-1-3.2-1.4-4.8-1.4-22 0-44-0.2-66 0-3.4 0-4.8-1-6-4.2-2.8-7.8-5.8-15.4-9.2-23.6 30.8 0 61 0 91.8 0 0-5.2 0-10 0-14.6 0-8.4 2.2-18-0.8-25.2s-11-12.4-17-18.4c-9.6-9.6-19.2-19.4-29-28.8-1.4-1.4-3.6-2.6-5.4-2.6-23.2-0.2-46.4-0.2-69.4-0.2-0.6 0-1.2 0.2-2.4 0.4 0 21.4 0 42.6 0 64.2-4.8 0-9 0-14.4 0 6.8 18 13.4 35.4 20.2 53.2-6-0.2-11.2-0.2-16.8-0.2zM181.8 190.8c0 14.6 0 28.8 0 42.8-18 0-35.8 0-53.6 0 0-14.4 0-28.4 0-42.8 18 0 35.8 0 53.6 0zM923.2 270c25.2-9.8 49.4-19.2 73.8-28.6 0-0.2 0-0.6 0-0.8-1.2-0.2-2.4-0.4-3.6-0.4-20.4 0-41-0.2-61.4 0-3.2 0-6.4 1.2-9.6 2.2-10 3.8-20 7.8-30.2 11.6-2 0.6-4.4 0.2-6.6 0-0.8 0-1.6-0.6-2.2-1-19.2-11-39.6-14.8-61.6-13-11 1-22 0.2-33.4 1.2 21.6 9 43.2 18 66.2 27.8-17.4 6.8-33.4 13-49.2 19.2 0 0.4 0 0.6 0 1 1.6 0 3 0 4.6 0 18 0 36-0.2 54 0 7.2 0 14.2-0.4 20.8-4 3.4-1.8 6.4-1.4 9.8 0 9.8 4 19.6 7.8 29.2 12.8-1.4 0-2.8 0.2-4.2 0.2-26.2 0-52.4 0-78.4 0-1.8 0-4.6-0.2-5.4-1.4-3-3.8-6.6-3.6-10.8-3.6-9.6 0-19.4 0-29.6 0 0.6 1.2 0.8 2.4 1.4 3.2 6.4 8.8 13 17.6 19.6 26.4 0.8 1.2 2.6 2.2 4 2.4 10.4 0.2 21 0.2 31.8 0.2-0.6-1.4-1-2.6-1.6-4.6 46.6 0 92.6 0 139.2 0 0-6.6 0.2-12.8-0.2-18.8 0-1.2-2.2-2.6-3.6-3.4-19-8.4-38.2-16.8-57.4-25.2-1.4-1.4-2.8-2.2-5.4-3.4zM994 230.6c0-5.6 0.2-10.8 0-15.8 0-1.4-1-3.2-2-4.2-13.4-13.4-26.8-27-40.4-40.2-1.2-1.2-3.4-2.2-5.2-2.2-49.6-0.2-99.4-0.2-149-0.2-0.4 0-1 0.2-1.8 0.2 0 20.6 0 41.4 0 62.4 66 0 131.8 0 198.4 0zM833.2 190c41.2 0 82.2 0 123.4 0 0 6.4 0 12.4 0 18.8-41.2 0-82.2 0-123.4 0 0-6.2 0-12.2 0-18.8zM659.6 209.6c0-9.4-0.2-18.8 0-28 0-3.2-0.8-5.2-4-6.4-9.6-3.8-19.2-8-29.4-12.4 0 28 0 55.6 0 83.4-3.6 0.2-6.8 0.4-10.2 0.6 0 7 0 13.8 0 21 1.6 0 3.2 0.2 4.8 0.2 11 0 22 0.2 33 0 3.2 0 5.2 1 7 3.6 9.2 13.6 24.8 14.2 35.2 1.2 3.2-4 6.2-5 11-5 10.8 0.2 21.6 0 33.6 0-3.4-7.4-6.4-14-10-20.6-0.6-1-3.2-1-5-1-20 0-40 0-60 0-1.8 0-3.6 0-5.6 0 0-5 0-9.4 0-14.4 25.4 0 50.8 0 76.6 0 0-6 0.2-11.4-0.2-16.8 0-1.2-1.4-2.6-2.4-3.6-14.4-14.4-28.8-28.6-43-43.2-4.6-4.6-9.8-1.2-15-3 0 8 0 15.4 0 23 8.6 0 17.4 0 26.4 0 0 7.2 0 14 0 21-14 0.4-28 0.4-42.8 0.4zM546.8 260.2c0 10.8 0 21 0 31.6-5.8 0-11.6 0-17.6 0 0 8.2 0 15.8 0 23.6 26.2 0 52.2 0 79.2 0-3.6-7.6-6.8-15-10.4-22.4-0.4-0.8-2.2-1.2-3.4-1.2-4.6-0.2-9.2 0-14.2 0 0-10.6 0-20.6 0-31.4 8.8 0 17.4 0 27.4 0-4-8.4-7.4-15.8-11-23.2-0.4-0.8-2.4-1-3.6-1-4.2-0.2-8.2 0-12.8 0 0-15.6 0-30.6 0-46.2 7.8 0 15.4 0 23.6 0-3.6-7.8-6.6-14.8-10-21.8-0.6-1-2.2-2-3.4-2.2-14.4-0.2-28.6 0-43.6 0 0 23.4 0 46.4 0 70-6.2 0-12 0-18 0 0 8.2 0 15.8 0 24.2 6.2 0 11.8 0 17.8 0zM792.2 364.8c26 0 51.4 0 77 0 3.4 0 5.8 0.6 7.6 4 4.8 9.6 13.8 9.8 22.8 9 8.2-0.8 15.6-2.8 20-11 0.6-1.2 3.2-2 5-2 22.2-0.2 44.2 0 66.4 0 2.2 0 4.2 0 7 0 0-10 0-19.6 0-29.2 0-0.8-1-2.4-1.8-2.6-10.8-3-21.6-5.8-33.2-8.6 0 5.6 0 10.8 0 16.2-45.6 0-90.6 0-135.6 0-1.4-10-1.4-10-11.4-12.6-7.8-2-15.6-4-23.8-6.2 0 14.2 0 28.4 0 43zM17 281.8c0 9.4 0 17.8 0 26.6 15.8 0 31.4 0 47.8 0 0-37.8 0-75.8 0-114.4 5.2 0 9.8 0 15.4 0-4.2-8.8-8-17-12-25-0.4-0.6-1.6-1-2.4-1.2-11.8 0-23.6 0-36 0 0 38 0 75.6 0 113.8-4.4 0.2-8.4 0.2-12.8 0.2zM322 193.8c5.4 0 10 0 15.4 0-4-8.6-7.8-16.4-11.6-24.2-0.4-0.8-2.2-1.6-3.2-1.6-11.6-0.2-23.2 0-35.6 0 0 38 0 75.6 0 113.8-4.6 0-8.4 0-12.8 0 0 9 0 17.8 0 26.8 15.8 0 31.4 0 47.6 0 0.2-38.2 0.2-76 0.2-114.8zM625.4 334c11 0 21.8 0 32.4-0.2 1.2 0 2.8-1.6 3.2-2.6 1.6-4.6 3-9.4 4.6-14.6 7.8 0 15.6 0 23.4 0 1 0 2 1.2 3 2.2 0.4 0.4 0.2 1.2 0.4 2 1.4 4.2 1.4 10.4 4.2 12.2 3.4 2.2 9.2 1 14 1 6.2 0 12.2 0 19 0-1.2-6-2.4-11.4-3.6-17.2 4.4 0 8.6 0 13.6 0 0-7.2 0-14 0-20.6 0-9.6 0-9.6-9-12.2-8-2.2-15.8-4.6-24.2-7.2 0 6 0 11.6 0 17.6-19.2 0-37.8 0-56.6 0-0.2-0.4-0.4-0.6-0.4-1-0.6-9-0.6-9-9.2-11.4-7.8-2.2-15.6-4.2-23.8-6.4 0 13.8 0 27.2 0 41 4.2 0 8.4 0 13.4 0-1.8 6-3 11.4-4.4 17.4zM937.2 534.4c4-15.4 8.2-30.8 12.2-46.4 0.6 0 1.2 0 1.8 0 1 3.8 2.2 7.6 3.2 11.4 2.6 10.2 5.2 20.2 7.6 30.4 0.8 3.6 2.4 5.2 6.4 5 6.6-0.4 13.4-0.2 20 0 3 0 4.4-0.6 4.4-4.2-0.2-22.4-0.2-44.6 0-67 0-3.2-0.8-4.6-4.2-4.4-4.2 0.2-8.2 0-13.2 0 0 2.4 0 4.2 0 6.2 0 15 0 30 0 45 0 1.4-1 2.8-1.6 4-0.8-1.2-2-2.4-2.4-3.8-4.2-15.8-8.4-31.4-12.2-47.2-0.8-3-1.6-4.4-5.2-4.4-11.6 0.2-11.4 0-14.4 11.2-3.4 13.4-6.8 26.8-10.4 40-0.4 1.6-1.4 3-2.2 4.4-0.6-0.2-1.2-0.4-1.8-0.6 0-18.2 0-36.4 0-54.8-6.2 0-11.6 0-17.2 0 0 24.8 0 49.6 0 74.8 9.6 0.4 19.2 0.4 29.2 0.4zM829.2 548.2c0 25.6 0 50.6 0 76.4 6.8 0 13.4 0.2 20-0.2 1.4 0 3-1.8 4-3.2 7.8-11.4 15.6-22.8 23.4-34 1-1.4 2-2.8 4-4 0 13.6 0 27 0 41 7.4 0 14.4 0 21.8 0 0-25.2 0-50.6 0-76.4-6.8 0-13.6-0.2-20.4 0.2-1.2 0-2.6 1.6-3.6 2.8-7.8 11.4-15.6 22.8-23.4 34-0.8 1.4-2 2.6-3.8 5 0-14.6 0-28 0-41.8-7.6 0.2-14.6 0.2-22 0.2zM843.4 713.8c6.4 0 12.6 0.2 18.8-0.2 1.8-0.2 3.8-1.8 4.8-3.2 7.8-11.2 15.4-22.4 23.2-33.6 1-1.4 2-2.8 3.8-5.2 0 14.8 0 28.2 0 42 7.4 0 14.4 0 21.8 0 0-25.2 0-50.6 0-76.6-6.6 0-13.2-0.2-19.8 0.2-1.2 0-2.8 1.6-3.6 2.8-7.8 11.4-15.6 22.8-23.4 34-1 1.4-2 2.8-3.8 5.2 0-14.8 0-28.2 0-42-7.4 0-14.4 0-21.6 0-0.2 25.2-0.2 50.6-0.2 76.6zM942.6 548c-8.4 0-15.6 0-23.2 0 0 25.4 0 50.6 0 76.2 7.6 0 15 0 23 0 0-9.4 0-18.6 0-29.4 7.8 9 14.6 16.6 21 24.6 3 3.6 6 5.6 10.8 5.4 7.8-0.4 15.6-0.2 24.6-0.2-9.6-10.2-18.6-19.4-27.8-29.2 9.4-15.6 19-31.2 29-47.6-9.6 0-18.4 0-27.4 0.2-1 0-2.2 1.6-2.8 2.8-4.2 7.8-8 15.6-12 23.4-0.8 1.6-1.8 3-3 5.4-4.4-4.8-9.8-8.6-11.8-13.8-1.8-5.2-0.4-11.6-0.4-17.8zM969.4 715c12.4 0.2 24-2.4 31.8-13 3.4-4.8 6.2-10.8 7.2-16.6 2.4-14.8 1.4-29.4-10.8-40.4-9.4-8.6-21.2-9.8-33-9-19 1.4-30.6 11-33.8 29.8s0.6 36.6 18.6 45c6.2 2.8 13.2 3.6 19.8 5.2 0-0.2 0-0.6 0.2-1zM952.6 675.4c0.4-3 0.8-6.2 1.4-9.2 0.2-1.2 0.6-2.6 1.2-3.8 2.4-5.8 8.2-9.4 14.6-9.2 7 0.2 12.2 3.6 14.4 10.2 2.4 7.6 2.8 15.4 0.6 23-2 7.2-8.4 11.6-15.6 11.4-7.4-0.2-13.2-5-14.8-12.4-1-3.2-1.2-6.6-1.8-10zM790 715.6c5.2-1 10.6-1.4 15.6-2.8 14.4-4.4 21.6-15 23.2-29.4 0.8-6.2 0.2-12.6-0.8-18.8-2.6-17.6-16-27.6-33.8-28.6-6-0.4-12.4 0.2-18.2 1.6-15.6 3.6-26 16.8-26 32.8 0 7.4 0.2 15.2 2.6 22 5 15.2 18.4 22.8 37.4 23.2zM806.2 675.8c-0.4 3.2-0.6 6.4-1.4 9.6-1.6 7.2-7.6 12-15 12.2-7 0.4-13-4-15.2-11-2.4-7.4-2.4-15 0-22.6 2.2-7.2 8.2-11.4 15.4-11 7.8 0.4 13.4 4.8 14.8 12.2 0.8 3.4 1 7 1.4 10.6zM893.2 497.4c0-24-14.4-39-38-39-25.6 0-39.8 13.8-39.8 39.2 0 23.2 14.6 38 37.2 38.4 24.6 0.4 40.6-13.8 40.6-38.6zM853.8 519.6c-7.6 0-13.2-3.4-15.2-10.4-2.2-8.2-2.6-16.6 0.4-25 2.4-7 7.4-10 15.8-10 7.6 0 13.2 3.4 14.6 10.2 1.2 6.4 1.4 13.2 1.2 19.6-0.4 10.6-6.4 15.6-16.8 15.6zM615.2 343.8c0 7.6 0 14.4 0 22 1.8 0 3.6 0 5.2 0 11.4 0 23-0.2 34.4 0.2 1.8 0 4.4 1.4 5.4 2.8 9 12.8 28.6 12.8 37.6 0 1-1.6 3.6-2.8 5.4-2.8 12.2-0.2 24.2-0.2 37.2-0.2-3-7.2-5.6-14-8.8-20.4-0.4-1-3-1.4-4.6-1.6-31.4 0-63 0-94.4 0-5.4 0-11.2 0-17.4 0zM803 514c-6.2-1.4-12-2.8-18.2-4.2-3.2 8-9.2 11.6-17.8 10.2-7.2-1-12.2-5.6-13-13-0.6-6.4-0.6-13 0-19.4 0.8-8.4 5-12.6 11.6-13.4 10-1.2 15.4 1.8 18.6 10.2 0.4 1 0.8 2.2 1.4 3.8 6-1.8 12-3.6 18.4-5.4-3.2-9.4-7.6-17-16.8-21.2-15-7-36.4-3.4-46.6 8.8-10.4 12.6-11.2 27.4-6.8 42.4 5 17 20.4 22.4 32 23 4.2 0.2 8.6 0 12.8-0.8 12.2-2 20-9.2 24.4-21zM573.8 361c11.6 0 23 0 35.2 0-3.6-8.4-6.6-16.4-10.2-24-0.4-0.8-2.6-1-3.8-1.2-7.8-0.2-15.6-0.2-23.4 0-3.4 0.2-5.4-0.8-6.6-4.4-3-8.8-3.2-8.8-12.6-8.8-8 0-16 0-24.6 0 5.6 17.6 11 34.6 16.6 51.8 11 0 21.6 0 33 0-1.4-4.4-2.4-8.8-3.6-13.4zM66.2 353.8c0-12.2-9.6-21.8-21.8-22-12 0-21.4 9.8-21.4 22.2 0 11.2 8.2 21.6 21.4 21.4 13.2 0 22-9.6 21.8-21.6zM301.8 331.8c-11.6 0-21.8 10.4-21.6 22.2 0.2 11.4 10.4 21.8 21.8 21.6 11.6-0.2 21.8-10 22.2-21.4 0-11.6-10.6-22.2-22.4-22.4zM474.8 199.6c0-10.6 0-21.2 0-32.2-11 0-21.8 0-32.8 0 11 10.6 21.8 21.4 32.8 32.2zM736.6 199.2c0-9.8 0.2-19.4-0.2-29.2 0-1.2-2.6-3-4-3-9.2-0.2-18.6-0.2-28.8 1 10.6 10.6 21 21.2 31.6 31.8 0.6-0.4 1-0.6 1.4-0.6zM217 198.8c0-10 0-20.2 0-30.6-10.4 0-20.6 0-31.4 0 10.6 10.2 20.8 20.4 31.4 30.6zM993 168c-9.8 0-19.6 0-30.2 0 5.2 5.4 10 10.2 14.8 15.2s9.4 10.2 14 15.4c0.6-0.4 1-0.6 1.6-1-0.2-9.8-0.2-19.4-0.2-29.6zM687 579.6c5.4 0 10.2 0.2 15 0 5.2-0.4 8.2-3.2 8.2-7.6s-2.8-7.6-7.8-7.8c-5-0.4-9.8 0-15.2 0-0.2 5-0.2 10-0.2 15.4zM687.2 608.8c4.8 0 9.2 0.2 13.6 0 3.8-0.2 6-2.6 6.2-6.6s-1.6-6.4-5.8-7.4c-13-3.2-16.2-0.2-14 14z" />
</font>
</defs>
</svg>
