<?xml version="1.0" encoding="utf-8"?>
<!DOCTYPE svg PUBLIC "-//W3C//DTD SVG 1.1//EN" "http://www.w3.org/Graphics/SVG/1.1/DTD/svg11.dtd">
<svg style="width:308px;height:308px;" version="1.1" id="图形" xmlns="http://www.w3.org/2000/svg" xmlns:xlink="http://www.w3.org/1999/xlink" x="0px" y="0px" width="1024px" height="1024px" viewBox="0 0 1024 1024" enable-background="new 0 0 1024 1024" xml:space="preserve">
  <path class="svgpath" data-index="path_0" fill="#272636" d="M918.955572 518.733355l38.257326-191.288674c4.329609-21.609157-0.841158-43.332924-14.183024-59.608609s-33.622772-25.604144-55.661717-25.604144L400.205844 242.231927c-21.618367 0-39.146579 17.528212-39.146579 39.146579s17.528212 39.146579 39.146579 39.146579L878.758058 320.525084l-36.5658 182.849468c-0.87902 4.396123-7.941879 10.847046-12.405541 11.32493l-504.275062 54.202483-49.530067-378.88219c-5.342682-40.875966-41.813315-72.89317-83.033112-72.89317l-88.509846 0c-21.618367 0-39.146579 17.528212-39.146579 39.146579s17.528212 39.146579 39.146579 39.146579l88.509846 0c1.882883 0 5.160533 2.886747 5.409197 4.750187l62.275345 476.372571c5.342682 40.875966 41.813315 72.89317 83.033112 72.89317L890.771673 749.435691c21.618367 0 39.146579-17.528212 39.146579-39.146579s-17.528212-39.146579-39.146579-39.146579L343.665107 671.142533c-1.873674 0-5.160533-2.886747-5.409197-4.750187l-2.592035-19.828604 502.476089-54.010101C876.617301 588.4246 911.366733 556.693922 918.955572 518.733355z" />
<path class="svgpath" data-index="path_1" fill="#272636" d="M802.902416 862.194824m-44.678572 0a43.661 43.661 0 1 0 89.357144 0 43.661 43.661 0 1 0 -89.357144 0Z" />
<path class="svgpath" data-index="path_2" fill="#272636" d="M373.993856 862.194824m-44.678572 0a43.661 43.661 0 1 0 89.357144 0 43.661 43.661 0 1 0 -89.357144 0Z" />

</svg>
